<svg version="1.1" xmlns="http://www.w3.org/2000/svg" viewBox="0 0 1260 580" width="1260" height="580">
  <!-- svg-source:excalidraw -->
  
  <defs>
    <style>
      @font-face {
        font-family: "Virgil";
        src: url("https://excalidraw.com/Virgil.woff2");
      }
      @font-face {
        font-family: "Cascadia";
        src: url("https://excalidraw.com/Cascadia.woff2");
      }
    </style>
  </defs>
  <rect x="0" y="0" width="1260" height="580" fill="#ffffff"></rect><g stroke-opacity="0.2" fill-opacity="0.2" stroke-linecap="round" transform="translate(10 170) rotate(0 620 200)"><path d="M0 0 C0 0, 0 0, 0 0 M0 0 C0 0, 0 0, 0 0 M-0.26 6.4 C1.11 4.82, 2.47 3.25, 4.99 0.36 M-0.26 6.4 C0.95 5.01, 2.15 3.62, 4.99 0.36 M0.13 12.04 C3.26 8.45, 6.38 4.85, 10.63 -0.03 M0.13 12.04 C3.75 7.88, 7.37 3.72, 10.63 -0.03 M-0.13 18.44 C3.34 14.44, 6.82 10.45, 15.62 0.33 M-0.13 18.44 C3.32 14.47, 6.77 10.5, 15.62 0.33 M0.27 24.08 C5.39 18.19, 10.51 12.29, 21.26 -0.07 M0.27 24.08 C5.82 17.7, 11.37 11.31, 21.26 -0.07 M0 30.48 C5.54 24.11, 11.08 17.73, 26.25 0.29 M0 30.48 C7.68 21.65, 15.36 12.82, 26.25 0.29 M-0.26 36.88 C11.27 23.62, 22.79 10.36, 31.89 -0.1 M-0.26 36.88 C9.43 25.74, 19.11 14.6, 31.89 -0.1 M0.14 42.52 C14.19 26.35, 28.25 10.18, 36.88 0.26 M0.14 42.52 C13.32 27.36, 26.5 12.19, 36.88 0.26 M-0.12 48.92 C8.6 38.88, 17.33 28.84, 42.52 -0.14 M-0.12 48.92 C16.42 29.89, 32.96 10.86, 42.52 -0.14 M0.27 54.56 C11.46 41.69, 22.65 28.82, 47.51 0.22 M0.27 54.56 C12.09 40.97, 23.91 27.37, 47.51 0.22 M0.01 60.96 C18.48 39.71, 36.95 18.46, 53.15 -0.17 M0.01 60.96 C17.58 40.74, 35.16 20.52, 53.15 -0.17 M-0.25 67.36 C18.86 45.37, 37.97 23.38, 58.14 0.19 M-0.25 67.36 C12.72 52.43, 25.7 37.5, 58.14 0.19 M0.14 73 C16.31 54.4, 32.48 35.8, 63.78 -0.21 M0.14 73 C19.84 50.34, 39.54 27.68, 63.78 -0.21 M-0.12 79.4 C24.62 50.94, 49.35 22.49, 68.77 0.15 M-0.12 79.4 C17.37 59.28, 34.86 39.16, 68.77 0.15 M0.28 85.04 C29.37 51.58, 58.46 18.11, 74.41 -0.24 M0.28 85.04 C28.26 52.85, 56.24 20.66, 74.41 -0.24 M0.01 91.44 C22.93 65.08, 45.84 38.72, 79.4 0.12 M0.01 91.44 C27.6 59.7, 55.19 27.96, 79.4 0.12 M-0.25 97.84 C28.1 65.22, 56.45 32.61, 85.04 -0.28 M-0.25 97.84 C30.55 62.4, 61.35 26.97, 85.04 -0.28 M0.15 103.48 C20.29 80.31, 40.43 57.14, 90.03 0.08 M0.15 103.48 C20.74 79.79, 41.33 56.1, 90.03 0.08 M-0.11 109.88 C23.4 82.83, 46.91 55.78, 95.67 -0.31 M-0.11 109.88 C34.43 70.14, 68.98 30.39, 95.67 -0.31 M0.28 115.52 C32.92 77.97, 65.57 40.42, 100.66 0.05 M0.28 115.52 C25.16 86.9, 50.03 58.29, 100.66 0.05 M0.02 121.92 C21.77 96.9, 43.51 71.88, 106.3 -0.34 M0.02 121.92 C26.54 91.4, 53.07 60.89, 106.3 -0.34 M-0.24 128.32 C33.57 89.41, 67.39 50.51, 111.29 0.02 M-0.24 128.32 C30.59 92.85, 61.42 57.38, 111.29 0.02 M0.15 133.96 C33.17 95.97, 66.19 57.99, 116.27 0.38 M0.15 133.96 C43.67 83.89, 87.19 33.83, 116.27 0.38 M-0.11 140.36 C39.05 95.31, 78.21 50.26, 121.92 -0.02 M-0.11 140.36 C25.66 110.72, 51.42 81.08, 121.92 -0.02 M0.29 146 C33.31 108.01, 66.33 70.03, 126.91 0.34 M0.29 146 C32.79 108.61, 65.29 71.22, 126.91 0.34 M0.02 152.4 C38.81 107.78, 77.6 63.16, 132.55 -0.05 M0.02 152.4 C36.01 111, 71.99 69.61, 132.55 -0.05 M-0.24 158.8 C42.69 109.41, 85.61 60.03, 137.54 0.31 M-0.24 158.8 C39.59 112.98, 79.42 67.16, 137.54 0.31 M0.16 164.44 C55.14 101.18, 110.13 37.93, 143.18 -0.09 M0.16 164.44 C43.15 114.98, 86.14 65.52, 143.18 -0.09 M-0.1 170.84 C46.74 116.95, 93.58 63.06, 148.17 0.27 M-0.1 170.84 C35.38 130.02, 70.86 89.21, 148.17 0.27 M0.29 176.48 C48.46 121.06, 96.64 65.65, 153.81 -0.12 M0.29 176.48 C40.96 129.7, 81.62 82.92, 153.81 -0.12 M0.03 182.88 C56.34 118.1, 112.65 53.32, 158.8 0.24 M0.03 182.88 C55.27 119.33, 110.52 55.77, 158.8 0.24 M-0.23 189.27 C40.89 141.97, 82.01 94.67, 164.44 -0.16 M-0.23 189.27 C58.11 122.16, 116.45 55.05, 164.44 -0.16 M0.16 194.92 C35.73 154, 71.29 113.09, 169.43 0.2 M0.16 194.92 C38.96 150.28, 77.77 105.64, 169.43 0.2 M-0.1 201.32 C54.7 138.27, 109.51 75.23, 175.07 -0.19 M-0.1 201.32 C49.32 144.46, 98.75 87.6, 175.07 -0.19 M0.3 206.96 C48.15 151.91, 96 96.86, 180.06 0.17 M0.3 206.96 C66.93 130.3, 133.57 53.64, 180.06 0.17 M0.03 213.36 C51.17 154.53, 102.3 95.71, 185.7 -0.23 M0.03 213.36 C71.57 131.07, 143.1 48.78, 185.7 -0.23 M-0.23 219.75 C39.55 173.99, 79.34 128.23, 190.69 0.13 M-0.23 219.75 C44.32 168.5, 88.87 117.26, 190.69 0.13 M0.17 225.4 C51.4 166.47, 102.62 107.53, 196.33 -0.26 M0.17 225.4 C63.7 152.31, 127.23 79.22, 196.33 -0.26 M-0.09 231.8 C65.1 156.8, 130.29 81.8, 201.32 0.1 M-0.09 231.8 C70.73 150.32, 141.56 68.84, 201.32 0.1 M0.3 237.44 C51.01 179.1, 101.72 120.77, 206.96 -0.3 M0.3 237.44 C79.17 146.71, 158.04 55.98, 206.96 -0.3 M0.04 243.84 C42.58 194.9, 85.11 145.97, 211.95 0.06 M0.04 243.84 C49.51 186.92, 98.99 130.01, 211.95 0.06 M-0.22 250.23 C77.09 161.29, 154.41 72.35, 217.59 -0.33 M-0.22 250.23 C79.43 158.61, 159.07 66.98, 217.59 -0.33 M0.17 255.88 C51.25 197.12, 102.33 138.36, 222.58 0.03 M0.17 255.88 C58.03 189.32, 115.89 122.76, 222.58 0.03 M-0.09 262.27 C84.01 165.52, 168.12 68.77, 228.22 -0.36 M-0.09 262.27 C69.89 181.77, 139.87 101.27, 228.22 -0.36 M0.3 267.92 C70.7 186.94, 141.09 105.97, 233.21 0 M0.3 267.92 C90.31 164.38, 180.31 60.85, 233.21 0 M0.04 274.32 C51.39 215.25, 102.73 156.18, 238.19 0.36 M0.04 274.32 C85.33 176.21, 170.61 78.1, 238.19 0.36 M-0.22 280.71 C75.85 193.2, 151.92 105.69, 243.84 -0.04 M-0.22 280.71 C58.49 213.18, 117.19 145.65, 243.84 -0.04 M0.18 286.36 C69.35 206.78, 138.53 127.2, 248.82 0.32 M0.18 286.36 C74.25 201.14, 148.33 115.92, 248.82 0.32 M-0.08 292.75 C64.3 218.69, 128.68 144.63, 254.47 -0.07 M-0.08 292.75 C56.96 227.14, 114 161.52, 254.47 -0.07 M0.31 298.4 C75.29 212.15, 150.27 125.89, 259.45 0.29 M0.31 298.4 C59.08 230.79, 117.85 163.18, 259.45 0.29 M0.05 304.8 C85.47 206.52, 170.9 108.25, 265.1 -0.11 M0.05 304.8 C56.28 240.11, 112.5 175.43, 265.1 -0.11 M-0.21 311.19 C62.94 238.54, 126.1 165.89, 270.08 0.25 M-0.21 311.19 C72.49 227.55, 145.2 143.91, 270.08 0.25 M0.18 316.84 C60.2 247.79, 120.22 178.74, 275.73 -0.14 M0.18 316.84 C69.96 236.57, 139.74 156.29, 275.73 -0.14 M-0.08 323.23 C69.4 243.3, 138.88 163.37, 280.71 0.22 M-0.08 323.23 C76.37 235.29, 152.82 147.34, 280.71 0.22 M0.31 328.88 C68.68 250.23, 137.06 171.57, 286.36 -0.18 M0.31 328.88 C77.35 240.26, 154.38 151.64, 286.36 -0.18 M0.05 335.27 C92.83 228.54, 185.61 121.81, 291.34 0.18 M0.05 335.27 C89.71 232.14, 179.37 129, 291.34 0.18 M-0.21 341.67 C114.8 209.37, 229.82 77.06, 296.99 -0.21 M-0.21 341.67 C105.52 220.05, 211.24 98.43, 296.99 -0.21 M0.19 347.32 C116.75 213.22, 233.31 79.13, 301.97 0.15 M0.19 347.32 C111.9 218.81, 223.61 90.3, 301.97 0.15 M-0.08 353.71 C81.28 260.13, 162.63 166.54, 307.62 -0.25 M-0.08 353.71 C86.5 254.12, 173.07 154.53, 307.62 -0.25 M0.32 359.36 C75.76 272.57, 151.2 185.79, 312.6 0.11 M0.32 359.36 C86.95 259.7, 173.58 160.04, 312.6 0.11 M0.06 365.75 C119.53 228.32, 238.99 90.89, 318.25 -0.28 M0.06 365.75 C123.65 223.57, 247.25 81.39, 318.25 -0.28 M-0.2 372.15 C73.22 287.69, 146.64 203.23, 323.23 0.08 M-0.2 372.15 C119.8 234.1, 239.81 96.05, 323.23 0.08 M0.19 377.79 C74.46 292.35, 148.74 206.91, 328.88 -0.31 M0.19 377.79 C96.38 267.14, 192.57 156.48, 328.88 -0.31 M-0.07 384.19 C112.34 254.88, 224.74 125.58, 333.86 0.05 M-0.07 384.19 C72.04 301.24, 144.15 218.28, 333.86 0.05 M0.32 389.84 C76.05 302.72, 151.79 215.6, 339.51 -0.35 M0.32 389.84 C130.28 240.33, 260.24 90.83, 339.51 -0.35 M0.06 396.23 C108.91 271.02, 217.76 145.8, 344.49 0.01 M0.06 396.23 C103.56 277.17, 207.06 158.11, 344.49 0.01 M1.11 401.12 C132.2 250.33, 263.28 99.53, 349.48 0.37 M1.11 401.12 C113.47 271.88, 225.82 142.63, 349.48 0.37 M6.76 400.73 C133.02 255.48, 259.27 110.24, 355.12 -0.02 M6.76 400.73 C123.97 265.89, 241.19 131.05, 355.12 -0.02 M11.74 401.09 C149.51 242.61, 287.28 84.12, 360.11 0.34 M11.74 401.09 C132.53 262.14, 253.32 123.18, 360.11 0.34 M17.39 400.69 C95.63 310.69, 173.86 220.69, 365.75 -0.06 M17.39 400.69 C142.49 256.78, 267.59 112.87, 365.75 -0.06 M22.37 401.05 C159.23 243.61, 296.09 86.18, 370.74 0.3 M22.37 401.05 C149.62 254.67, 276.87 108.29, 370.74 0.3 M28.02 400.66 C133.51 279.31, 239 157.95, 376.38 -0.09 M28.02 400.66 C107.12 309.66, 186.23 218.66, 376.38 -0.09 M33 401.02 C166.1 247.9, 299.2 94.79, 381.37 0.27 M33 401.02 C123.93 296.42, 214.85 191.83, 381.37 0.27 M37.99 401.38 C159.79 261.26, 281.6 121.14, 387.01 -0.13 M37.99 401.38 C150.54 271.91, 263.09 142.43, 387.01 -0.13 M43.63 400.98 C175.4 249.4, 307.18 97.81, 392 0.23 M43.63 400.98 C179.59 244.59, 315.54 88.19, 392 0.23 M48.62 401.34 C176.55 254.17, 304.49 107, 397.64 -0.16 M48.62 401.34 C136.17 300.63, 223.72 199.92, 397.64 -0.16 M54.26 400.95 C158.12 281.47, 261.98 162, 402.63 0.2 M54.26 400.95 C152.78 287.62, 251.3 174.29, 402.63 0.2 M59.25 401.31 C167.62 276.64, 276 151.97, 408.27 -0.2 M59.25 401.31 C178.33 264.33, 297.4 127.35, 408.27 -0.2 M64.89 400.91 C155.47 296.72, 246.04 192.53, 413.26 0.16 M64.89 400.91 C183.97 263.93, 303.05 126.94, 413.26 0.16 M69.88 401.28 C205.1 245.72, 340.32 90.17, 418.9 -0.23 M69.88 401.28 C190.59 262.41, 311.31 123.55, 418.9 -0.23 M75.52 400.88 C174.35 287.19, 273.18 173.5, 423.89 0.13 M75.52 400.88 C195.35 263.04, 315.17 125.19, 423.89 0.13 M80.51 401.24 C204.57 258.53, 328.62 115.82, 429.53 -0.26 M80.51 401.24 C199.45 264.42, 318.39 127.59, 429.53 -0.26 M86.15 400.85 C222.24 244.3, 358.32 87.75, 434.52 0.1 M86.15 400.85 C204.35 264.87, 322.55 128.9, 434.52 0.1 M91.14 401.21 C169.4 311.18, 247.67 221.14, 440.16 -0.3 M91.14 401.21 C169.75 310.78, 248.35 220.36, 440.16 -0.3 M96.78 400.81 C202.61 279.07, 308.44 157.32, 445.15 0.06 M96.78 400.81 C219.18 260.02, 341.57 119.22, 445.15 0.06 M101.77 401.17 C225.7 258.61, 349.63 116.05, 450.79 -0.33 M101.77 401.17 C179.22 312.08, 256.67 222.99, 450.79 -0.33 M107.41 400.78 C228.54 261.44, 349.67 122.1, 455.78 0.03 M107.41 400.78 C203.92 289.76, 300.42 178.75, 455.78 0.03 M112.4 401.14 C238.32 256.29, 364.23 111.44, 461.42 -0.37 M112.4 401.14 C243.98 249.77, 375.56 98.41, 461.42 -0.37 M118.04 400.74 C239.44 261.1, 360.83 121.45, 466.41 -0.01 M118.04 400.74 C252.77 245.76, 387.5 90.77, 466.41 -0.01 M123.03 401.1 C194.69 318.67, 266.35 236.24, 471.4 0.35 M123.03 401.1 C213.64 296.86, 304.26 192.63, 471.4 0.35 M128.67 400.71 C244.94 266.96, 361.2 133.22, 477.04 -0.04 M128.67 400.71 C206.82 310.81, 284.96 220.92, 477.04 -0.04 M133.66 401.07 C240.19 278.52, 346.73 155.97, 482.03 0.32 M133.66 401.07 C225.73 295.16, 317.79 189.25, 482.03 0.32 M139.3 400.67 C220.38 307.4, 301.46 214.13, 487.67 -0.08 M139.3 400.67 C246.26 277.64, 353.21 154.6, 487.67 -0.08 M144.29 401.03 C223.93 309.42, 303.56 217.81, 492.66 0.28 M144.29 401.03 C250.89 278.41, 357.49 155.78, 492.66 0.28 M149.28 401.39 C280.61 250.32, 411.93 99.24, 498.3 -0.11 M149.28 401.39 C227.99 310.84, 306.71 220.29, 498.3 -0.11 M154.92 401 C291.88 243.45, 428.84 85.9, 503.29 0.25 M154.92 401 C268.2 270.69, 381.47 140.38, 503.29 0.25 M159.91 401.36 C298.36 242.09, 436.81 82.82, 508.93 -0.15 M159.91 401.36 C279.97 263.24, 400.04 125.12, 508.93 -0.15 M165.55 400.96 C294.47 252.66, 423.39 104.35, 513.92 0.21 M165.55 400.96 C299.72 246.62, 433.89 92.27, 513.92 0.21 M170.54 401.32 C284.97 269.69, 399.4 138.05, 519.56 -0.18 M170.54 401.32 C275.25 280.87, 379.95 160.42, 519.56 -0.18 M176.18 400.93 C309.11 248.02, 442.03 95.1, 524.55 0.18 M176.18 400.93 C306.03 251.56, 435.87 102.19, 524.55 0.18 M181.17 401.29 C287.73 278.71, 394.28 156.13, 530.19 -0.22 M181.17 401.29 C287.46 279.02, 393.75 156.74, 530.19 -0.22 M186.81 400.9 C256.97 320.19, 327.13 239.47, 535.18 0.14 M186.81 400.9 C290.67 281.42, 394.54 161.94, 535.18 0.14 M191.8 401.26 C284.65 294.44, 377.5 187.63, 540.82 -0.25 M191.8 401.26 C276.28 304.07, 360.77 206.88, 540.82 -0.25 M197.44 400.86 C286.23 298.72, 375.02 196.58, 545.81 0.11 M197.44 400.86 C335.07 242.54, 472.69 84.23, 545.81 0.11 M202.43 401.22 C289.22 301.38, 376.01 201.54, 551.45 -0.28 M202.43 401.22 C331.73 252.48, 461.02 103.74, 551.45 -0.28 M208.07 400.83 C319.16 273.04, 430.24 145.25, 556.44 0.08 M208.07 400.83 C284.91 312.43, 361.75 224.04, 556.44 0.08 M213.06 401.19 C315.44 283.41, 417.82 165.63, 562.08 -0.32 M213.06 401.19 C290.21 312.44, 367.36 223.69, 562.08 -0.32 M218.7 400.79 C295.99 311.89, 373.27 222.98, 567.07 0.04 M218.7 400.79 C342.45 258.43, 466.21 116.07, 567.07 0.04 M223.69 401.15 C342.98 263.92, 462.27 126.69, 572.71 -0.35 M223.69 401.15 C327.9 281.27, 432.12 161.38, 572.71 -0.35 M229.33 400.76 C349.1 262.99, 468.86 125.21, 577.7 0.01 M229.33 400.76 C334.9 279.32, 440.46 157.88, 577.7 0.01 M234.32 401.12 C351.82 265.94, 469.33 130.77, 582.69 0.37 M234.32 401.12 C367.15 248.32, 499.98 95.51, 582.69 0.37 M239.96 400.72 C350.14 273.98, 460.32 147.23, 588.33 -0.03 M239.96 400.72 C376.3 243.89, 512.63 87.05, 588.33 -0.03 M244.95 401.08 C358.07 270.95, 471.2 140.82, 593.32 0.33 M244.95 401.08 C321.86 312.61, 398.77 224.13, 593.32 0.33 M250.59 400.69 C362.91 271.48, 475.23 142.27, 598.96 -0.06 M250.59 400.69 C345.03 292.05, 439.46 183.42, 598.96 -0.06 M255.58 401.05 C377.67 260.6, 499.76 120.15, 603.95 0.3 M255.58 401.05 C339.93 304.02, 424.28 206.98, 603.95 0.3 M260.57 401.41 C399.11 242.04, 537.65 82.66, 609.59 -0.1 M260.57 401.41 C336.13 314.48, 411.69 227.56, 609.59 -0.1 M266.21 401.01 C392.49 255.74, 518.78 110.47, 614.58 0.26 M266.21 401.01 C351.16 303.29, 436.11 205.56, 614.58 0.26 M271.2 401.37 C385 270.46, 498.81 139.54, 620.22 -0.13 M271.2 401.37 C349.84 310.9, 428.49 220.43, 620.22 -0.13 M276.84 400.98 C384.96 276.6, 493.09 152.21, 625.21 0.23 M276.84 400.98 C380.62 281.59, 484.4 162.21, 625.21 0.23 M281.83 401.34 C403.16 261.76, 524.5 122.18, 630.85 -0.17 M281.83 401.34 C393.08 273.36, 504.33 145.38, 630.85 -0.17 M287.47 400.95 C372.88 302.69, 458.29 204.44, 635.84 0.19 M287.47 400.95 C374.44 300.89, 461.42 200.84, 635.84 0.19 M292.46 401.31 C380.07 300.52, 467.68 199.73, 641.48 -0.2 M292.46 401.31 C376.7 304.4, 460.94 207.49, 641.48 -0.2 M298.1 400.91 C374.59 312.92, 451.08 224.93, 646.47 0.16 M298.1 400.91 C374.02 313.57, 449.95 226.23, 646.47 0.16 M303.09 401.27 C399.82 289.99, 496.56 178.7, 652.11 -0.23 M303.09 401.27 C429.16 256.25, 555.22 111.22, 652.11 -0.23 M308.73 400.88 C443.82 245.48, 578.9 90.08, 657.1 0.13 M308.73 400.88 C411.51 282.65, 514.28 164.41, 657.1 0.13 M313.72 401.24 C390 313.48, 466.29 225.72, 662.74 -0.27 M313.72 401.24 C442.77 252.78, 571.82 104.32, 662.74 -0.27 M319.36 400.84 C425.81 278.38, 532.27 155.92, 667.73 0.09 M319.36 400.84 C405.26 302.02, 491.17 203.2, 667.73 0.09 M324.35 401.2 C435.79 273, 547.23 144.8, 673.37 -0.3 M324.35 401.2 C457.65 247.85, 590.96 94.5, 673.37 -0.3 M329.99 400.81 C410.23 308.5, 490.47 216.2, 678.36 0.06 M329.99 400.81 C403.77 315.93, 477.55 231.06, 678.36 0.06 M334.98 401.17 C465.86 250.61, 596.74 100.04, 684 -0.34 M334.98 401.17 C417.38 306.37, 499.79 211.58, 684 -0.34 M340.62 400.77 C417.59 312.23, 494.56 223.68, 688.99 0.02 M340.62 400.77 C411.4 319.35, 482.18 237.92, 688.99 0.02 M345.61 401.13 C426.87 307.65, 508.14 214.16, 694.63 -0.37 M345.61 401.13 C483.14 242.92, 620.66 84.72, 694.63 -0.37 M351.25 400.74 C434.13 305.4, 517 210.06, 699.62 -0.01 M351.25 400.74 C423.29 317.87, 495.32 235, 699.62 -0.01 M356.24 401.1 C457.82 284.24, 559.4 167.39, 704.6 0.35 M356.24 401.1 C440.19 304.53, 524.14 207.95, 704.6 0.35 M361.88 400.7 C446.61 303.23, 531.34 205.76, 710.25 -0.05 M361.88 400.7 C460.13 287.68, 558.39 174.65, 710.25 -0.05 M366.87 401.06 C437.09 320.29, 507.3 239.51, 715.23 0.31 M366.87 401.06 C501.2 246.54, 635.52 92.01, 715.23 0.31 M372.51 400.67 C477.2 280.24, 581.88 159.81, 720.88 -0.08 M372.51 400.67 C463.73 295.73, 554.95 190.8, 720.88 -0.08 M377.5 401.03 C504.53 254.9, 631.56 108.77, 725.86 0.28 M377.5 401.03 C502.9 256.77, 628.31 112.5, 725.86 0.28 M382.48 401.39 C478.44 291.01, 574.39 180.62, 731.51 -0.12 M382.48 401.39 C470.62 300, 558.75 198.62, 731.51 -0.12 M388.13 400.99 C469.74 307.11, 551.35 213.23, 736.5 0.24 M388.13 400.99 C499.5 272.88, 610.86 144.77, 736.5 0.24 M393.11 401.35 C509.41 267.58, 625.7 133.8, 742.14 -0.15 M393.11 401.35 C509.62 267.33, 626.13 133.3, 742.14 -0.15 M398.76 400.96 C473.81 314.62, 548.87 228.28, 747.13 0.21 M398.76 400.96 C518.49 263.23, 638.22 125.49, 747.13 0.21 M403.74 401.32 C488.77 303.51, 573.79 205.7, 752.77 -0.19 M403.74 401.32 C494.12 297.35, 584.5 193.39, 752.77 -0.19 M409.39 400.93 C536.45 254.76, 663.52 108.59, 757.76 0.18 M409.39 400.93 C525.88 266.91, 642.38 132.9, 757.76 0.18 M414.37 401.29 C510.71 290.47, 607.04 179.65, 763.4 -0.22 M414.37 401.29 C538.11 258.94, 661.85 116.6, 763.4 -0.22 M420.02 400.89 C521.14 284.56, 622.27 168.23, 768.39 0.14 M420.02 400.89 C530.69 273.58, 641.37 146.26, 768.39 0.14 M425 401.25 C530.34 280.07, 635.68 158.9, 774.03 -0.25 M425 401.25 C502.02 312.66, 579.03 224.07, 774.03 -0.25 M430.65 400.86 C518.36 299.96, 606.06 199.06, 779.02 0.11 M430.65 400.86 C550.08 263.46, 669.52 126.07, 779.02 0.11 M435.64 401.22 C538.24 283.18, 640.85 165.15, 784.66 -0.29 M435.64 401.22 C516.19 308.54, 596.75 215.87, 784.66 -0.29 M441.28 400.82 C532.01 296.45, 622.74 192.07, 789.65 0.07 M441.28 400.82 C574.56 247.5, 707.83 94.19, 789.65 0.07 M446.27 401.18 C525.51 310.02, 604.76 218.85, 795.29 -0.32 M446.27 401.18 C527.23 308.04, 608.19 214.9, 795.29 -0.32 M451.91 400.79 C583.99 248.85, 716.07 96.9, 800.28 0.04 M451.91 400.79 C533.1 307.38, 614.3 213.98, 800.28 0.04 M456.9 401.15 C588.53 249.72, 720.16 98.29, 805.92 -0.36 M456.9 401.15 C542.24 302.97, 627.58 204.8, 805.92 -0.36 M462.54 400.75 C539.96 311.69, 617.38 222.63, 810.91 0 M462.54 400.75 C537.06 315.02, 611.59 229.29, 810.91 0 M467.53 401.11 C544.83 312.18, 622.14 223.26, 815.89 0.36 M467.53 401.11 C593.72 255.94, 719.92 110.76, 815.89 0.36 M473.17 400.72 C562.23 298.27, 651.29 195.81, 821.54 -0.03 M473.17 400.72 C566.6 293.24, 660.02 185.77, 821.54 -0.03 M478.16 401.08 C596.79 264.6, 715.43 128.12, 826.52 0.33 M478.16 401.08 C566.11 299.9, 654.06 198.73, 826.52 0.33 M483.8 400.68 C587.23 281.69, 690.67 162.7, 832.17 -0.07 M483.8 400.68 C575.18 295.56, 666.57 190.43, 832.17 -0.07 M488.79 401.04 C598.13 275.25, 707.48 149.46, 837.15 0.29 M488.79 401.04 C577.91 298.52, 667.03 195.99, 837.15 0.29 M493.77 401.4 C568.84 315.05, 643.91 228.69, 842.8 -0.1 M493.77 401.4 C593.69 286.47, 693.6 171.53, 842.8 -0.1 M499.42 401.01 C577.53 311.14, 655.65 221.28, 847.78 0.26 M499.42 401.01 C599.22 286.19, 699.03 171.38, 847.78 0.26 M504.4 401.37 C584.96 308.7, 665.51 216.04, 853.43 -0.14 M504.4 401.37 C627.74 259.49, 751.07 117.61, 853.43 -0.14 M510.05 400.98 C633.9 258.49, 757.76 116.01, 858.41 0.22 M510.05 400.98 C625.72 267.91, 741.39 134.85, 858.41 0.22 M515.03 401.34 C590.5 314.52, 665.97 227.7, 864.06 -0.17 M515.03 401.34 C619.88 280.72, 724.73 160.1, 864.06 -0.17 M520.68 400.94 C622.83 283.42, 724.99 165.9, 869.04 0.19 M520.68 400.94 C643.81 259.29, 766.94 117.64, 869.04 0.19 M525.66 401.3 C663.58 242.64, 801.5 83.98, 874.69 -0.2 M525.66 401.3 C626.05 285.82, 726.44 170.33, 874.69 -0.2 M531.31 400.91 C609.48 310.98, 687.65 221.05, 879.67 0.16 M531.31 400.91 C665.5 246.54, 799.69 92.16, 879.67 0.16 M536.29 401.27 C621.06 303.75, 705.84 206.23, 885.32 -0.24 M536.29 401.27 C640.54 281.34, 744.79 161.42, 885.32 -0.24 M541.94 400.87 C624.71 305.65, 707.48 210.43, 890.3 0.12 M541.94 400.87 C623.86 306.63, 705.79 212.38, 890.3 0.12 M546.92 401.23 C681.75 246.13, 816.57 91.04, 895.95 -0.27 M546.92 401.23 C630.93 304.59, 714.94 207.95, 895.95 -0.27 M552.57 400.84 C630.26 311.46, 707.95 222.09, 900.93 0.09 M552.57 400.84 C686.57 246.68, 820.58 92.52, 900.93 0.09 M557.55 401.2 C663.59 279.21, 769.64 157.22, 906.58 -0.31 M557.55 401.2 C642.78 303.15, 728.01 205.1, 906.58 -0.31 M563.2 400.8 C692.91 251.58, 822.63 102.36, 911.56 0.05 M563.2 400.8 C663.69 285.2, 764.19 169.59, 911.56 0.05 M568.18 401.16 C646.88 310.63, 725.58 220.1, 917.21 -0.34 M568.18 401.16 C694.94 255.35, 821.69 109.54, 917.21 -0.34 M573.83 400.77 C670.99 288.99, 768.16 177.22, 922.19 0.02 M573.83 400.77 C669.55 290.65, 765.27 180.54, 922.19 0.02 M578.81 401.13 C660.08 307.64, 741.35 214.15, 927.84 -0.38 M578.81 401.13 C674.8 290.71, 770.79 180.28, 927.84 -0.38 M584.46 400.73 C667.21 305.54, 749.96 210.34, 932.82 -0.02 M584.46 400.73 C669.88 302.47, 755.3 204.2, 932.82 -0.02 M589.44 401.09 C714.52 257.21, 839.59 113.33, 937.81 0.34 M589.44 401.09 C722.04 248.56, 854.63 96.03, 937.81 0.34 M595.09 400.7 C715.15 262.58, 835.21 124.46, 943.45 -0.05 M595.09 400.7 C725.67 250.48, 856.26 100.26, 943.45 -0.05 M600.07 401.06 C700.66 285.35, 801.24 169.64, 948.44 0.31 M600.07 401.06 C706.06 279.13, 812.05 157.21, 948.44 0.31 M605.72 400.67 C744.44 241.08, 883.16 81.5, 954.08 -0.09 M605.72 400.67 C679.64 315.62, 753.57 230.58, 954.08 -0.09 M610.7 401.03 C700.66 297.55, 790.61 194.07, 959.07 0.27 M610.7 401.03 C747.83 243.28, 884.96 85.53, 959.07 0.27 M615.69 401.39 C754.51 241.69, 893.34 81.99, 964.71 -0.12 M615.69 401.39 C748.05 249.12, 880.41 96.86, 964.71 -0.12 M621.33 400.99 C745.1 258.61, 868.87 116.23, 969.7 0.24 M621.33 400.99 C697.96 312.85, 774.58 224.7, 969.7 0.24 M626.32 401.35 C711.61 303.23, 796.91 205.12, 975.34 -0.15 M626.32 401.35 C721.01 292.42, 815.71 183.49, 975.34 -0.15 M631.96 400.96 C708.37 313.06, 784.77 225.17, 980.33 0.21 M631.96 400.96 C728.74 289.63, 825.52 178.3, 980.33 0.21 M636.95 401.32 C720.98 304.65, 805.01 207.99, 985.97 -0.19 M636.95 401.32 C761.64 257.88, 886.33 114.44, 985.97 -0.19 M642.59 400.92 C761.48 264.16, 880.37 127.39, 990.96 0.17 M642.59 400.92 C741.96 286.62, 841.32 172.31, 990.96 0.17 M647.58 401.28 C784.08 244.25, 920.58 87.23, 996.6 -0.22 M647.58 401.28 C745.08 289.12, 842.57 176.97, 996.6 -0.22 M653.22 400.89 C779.91 255.16, 906.59 109.42, 1001.59 0.14 M653.22 400.89 C752.06 287.19, 850.89 173.5, 1001.59 0.14 M658.21 401.25 C763.34 280.31, 868.46 159.38, 1007.23 -0.26 M658.21 401.25 C781.51 259.41, 904.8 117.57, 1007.23 -0.26 M663.85 400.85 C796.41 248.37, 928.96 95.88, 1012.22 0.1 M663.85 400.85 C781.66 265.33, 899.46 129.82, 1012.22 0.1 M668.84 401.21 C766.01 289.43, 863.18 177.65, 1017.86 -0.29 M668.84 401.21 C762.43 293.55, 856.02 185.89, 1017.86 -0.29 M674.48 400.82 C757.21 305.65, 839.94 210.48, 1022.85 0.07 M674.48 400.82 C757.03 305.86, 839.57 210.91, 1022.85 0.07 M679.47 401.18 C760.32 308.18, 841.16 215.17, 1028.49 -0.33 M679.47 401.18 C814.4 245.96, 949.32 90.75, 1028.49 -0.33 M685.11 400.78 C765.85 307.91, 846.59 215.03, 1033.48 0.03 M685.11 400.78 C821.62 243.75, 958.12 86.72, 1033.48 0.03 M690.1 401.14 C819.71 252.05, 949.32 102.95, 1039.12 -0.36 M690.1 401.14 C775.46 302.95, 860.82 204.75, 1039.12 -0.36 M695.74 400.75 C769.64 315.75, 843.53 230.75, 1044.11 0 M695.74 400.75 C813.52 265.26, 931.3 129.77, 1044.11 0 M700.73 401.11 C808.58 277.04, 916.43 152.97, 1049.1 0.36 M700.73 401.11 C788.36 300.3, 876 199.49, 1049.1 0.36 M706.37 400.71 C803.51 288.97, 900.65 177.23, 1054.74 -0.04 M706.37 400.71 C788.01 306.8, 869.65 212.89, 1054.74 -0.04 M711.36 401.07 C836.76 256.82, 962.16 112.57, 1059.73 0.32 M711.36 401.07 C847.37 244.61, 983.39 88.15, 1059.73 0.32 M717 400.68 C815.88 286.94, 914.75 173.2, 1065.37 -0.07 M717 400.68 C843.37 255.32, 969.73 109.95, 1065.37 -0.07 M721.99 401.04 C804.77 305.82, 887.54 210.59, 1070.36 0.29 M721.99 401.04 C832.6 273.8, 943.21 146.55, 1070.36 0.29 M726.98 401.4 C842.33 268.7, 957.69 136, 1076 -0.11 M726.98 401.4 C806.82 309.55, 886.67 217.7, 1076 -0.11 M732.62 401.01 C857.78 257.03, 982.94 113.05, 1080.99 0.26 M732.62 401.01 C824.09 295.78, 915.56 190.56, 1080.99 0.26 M737.61 401.37 C833.21 291.39, 928.81 181.42, 1086.63 -0.14 M737.61 401.37 C828.86 296.39, 920.11 191.42, 1086.63 -0.14 M743.25 400.97 C862.82 263.42, 982.39 125.87, 1091.62 0.22 M743.25 400.97 C857.79 269.21, 972.33 137.44, 1091.62 0.22 M748.24 401.33 C825.22 312.77, 902.21 224.21, 1097.26 -0.17 M748.24 401.33 C857.55 275.58, 966.86 149.84, 1097.26 -0.17 M753.88 400.94 C861.64 276.97, 969.41 153, 1102.25 0.19 M753.88 400.94 C890.73 243.51, 1027.58 86.09, 1102.25 0.19 M758.87 401.3 C838.67 309.49, 918.48 217.69, 1107.89 -0.21 M758.87 401.3 C884.46 256.82, 1010.06 112.34, 1107.89 -0.21 M764.51 400.9 C896.54 249.02, 1028.57 97.14, 1112.88 0.15 M764.51 400.9 C835.83 318.85, 907.16 236.81, 1112.88 0.15 M769.5 401.26 C842.03 317.82, 914.57 234.38, 1118.52 -0.24 M769.5 401.26 C839.55 320.68, 909.6 240.1, 1118.52 -0.24 M775.14 400.87 C905.84 250.51, 1036.54 100.16, 1123.51 0.12 M775.14 400.87 C875.48 285.44, 975.83 170.01, 1123.51 0.12 M780.13 401.23 C856.69 313.16, 933.24 225.09, 1129.15 -0.28 M780.13 401.23 C905.25 257.29, 1030.37 113.35, 1129.15 -0.28 M785.77 400.83 C898.1 271.62, 1010.42 142.4, 1134.14 0.08 M785.77 400.83 C869.27 304.78, 952.76 208.74, 1134.14 0.08 M790.76 401.19 C922.01 250.21, 1053.25 99.23, 1139.78 -0.31 M790.76 401.19 C923.17 248.87, 1055.59 96.54, 1139.78 -0.31 M796.4 400.8 C917.23 261.8, 1038.07 122.79, 1144.77 0.05 M796.4 400.8 C876.54 308.61, 956.67 216.43, 1144.77 0.05 M801.39 401.16 C920.85 263.73, 1040.32 126.3, 1150.41 -0.35 M801.39 401.16 C917.61 267.47, 1033.83 133.77, 1150.41 -0.35 M807.03 400.76 C938.05 250.04, 1069.07 99.32, 1155.4 0.01 M807.03 400.76 C912.57 279.36, 1018.1 157.96, 1155.4 0.01 M812.02 401.12 C893.54 307.34, 975.07 213.56, 1160.39 0.37 M812.02 401.12 C920.82 275.96, 1029.63 150.8, 1160.39 0.37 M817.66 400.73 C901.06 304.79, 984.45 208.86, 1166.03 -0.02 M817.66 400.73 C913.69 290.26, 1009.72 179.79, 1166.03 -0.02 M822.65 401.09 C933.69 273.35, 1044.74 145.61, 1171.02 0.34 M822.65 401.09 C938.97 267.28, 1055.29 133.47, 1171.02 0.34 M828.29 400.7 C956.32 253.41, 1084.35 106.13, 1176.66 -0.06 M828.29 400.7 C911.51 304.97, 994.72 209.24, 1176.66 -0.06 M833.28 401.06 C943.21 274.6, 1053.13 148.14, 1181.65 0.3 M833.28 401.06 C916.06 305.83, 998.83 210.61, 1181.65 0.3 M838.92 400.66 C940.93 283.31, 1042.94 165.96, 1187.29 -0.09 M838.92 400.66 C928.36 297.77, 1017.8 194.89, 1187.29 -0.09 M843.91 401.02 C946.69 282.78, 1049.47 164.55, 1192.28 0.27 M843.91 401.02 C978.67 246, 1113.42 90.98, 1192.28 0.27 M848.9 401.38 C970.79 261.16, 1092.68 120.94, 1197.92 -0.12 M848.9 401.38 C942.02 294.26, 1035.14 187.13, 1197.92 -0.12 M854.54 400.99 C986.72 248.94, 1118.89 96.88, 1202.91 0.24 M854.54 400.99 C982.85 253.38, 1111.17 105.77, 1202.91 0.24 M859.53 401.35 C989.43 251.9, 1119.34 102.46, 1208.55 -0.16 M859.53 401.35 C992.19 248.73, 1124.86 96.11, 1208.55 -0.16 M865.17 400.95 C949.63 303.8, 1034.08 206.64, 1213.54 0.2 M865.17 400.95 C967.02 283.79, 1068.86 166.63, 1213.54 0.2 M870.16 401.31 C1009.34 241.2, 1148.53 81.08, 1219.18 -0.19 M870.16 401.31 C1003.16 248.3, 1136.17 95.3, 1219.18 -0.19 M875.8 400.92 C948.75 317, 1021.7 233.08, 1224.17 0.17 M875.8 400.92 C977.72 283.67, 1079.64 166.43, 1224.17 0.17 M880.79 401.28 C1009.08 253.7, 1137.36 106.12, 1229.81 -0.23 M880.79 401.28 C960.23 309.89, 1039.68 218.5, 1229.81 -0.23 M886.43 400.88 C1010.87 257.73, 1135.32 114.57, 1234.8 0.13 M886.43 400.88 C965.18 310.29, 1043.94 219.69, 1234.8 0.13 M891.42 401.24 C967.75 313.43, 1044.09 225.62, 1240.44 -0.26 M891.42 401.24 C1013.94 260.3, 1136.46 119.36, 1240.44 -0.26 M897.06 400.85 C970.6 316.25, 1044.13 231.66, 1240.18 6.14 M897.06 400.85 C1025.18 253.46, 1153.3 106.08, 1240.18 6.14 M902.05 401.21 C1035.15 248.09, 1168.25 94.98, 1239.92 12.53 M902.05 401.21 C1022.36 262.8, 1142.67 124.4, 1239.92 12.53 M907.69 400.81 C994.4 301.06, 1081.12 201.31, 1240.31 18.18 M907.69 400.81 C1020.3 271.27, 1132.9 141.73, 1240.31 18.18 M912.68 401.17 C1022.85 274.43, 1133.03 147.68, 1240.05 24.57 M912.68 401.17 C1017.76 280.29, 1122.85 159.4, 1240.05 24.57 M918.32 400.78 C991.74 316.32, 1065.17 231.85, 1240.45 30.22 M918.32 400.78 C1030.72 271.48, 1143.11 142.19, 1240.45 30.22 M923.31 401.14 C1047.33 258.47, 1171.35 115.8, 1240.18 36.61 M923.31 401.14 C1017.54 292.74, 1111.77 184.34, 1240.18 36.61 M928.95 400.75 C1053.07 257.96, 1177.2 115.17, 1239.92 43.01 M928.95 400.75 C1039.46 273.61, 1149.98 146.48, 1239.92 43.01 M933.94 401.11 C1027.34 293.66, 1120.73 186.22, 1240.32 48.66 M933.94 401.11 C998.37 326.98, 1062.8 252.86, 1240.32 48.66 M939.58 400.71 C1032.44 293.89, 1125.3 187.07, 1240.06 55.05 M939.58 400.71 C1039.4 285.88, 1139.23 171.04, 1240.06 55.05 M944.57 401.07 C1040.49 290.72, 1136.42 180.37, 1239.79 61.45 M944.57 401.07 C1050.35 279.39, 1156.12 157.7, 1239.79 61.45 M950.21 400.68 C1020.93 319.33, 1091.64 237.98, 1240.19 67.09 M950.21 400.68 C1059.58 274.86, 1168.95 149.05, 1240.19 67.09 M955.2 401.04 C1040.94 302.4, 1126.68 203.77, 1239.93 73.49 M955.2 401.04 C1044.4 298.42, 1133.61 195.8, 1239.93 73.49 M960.18 401.4 C1055.83 291.37, 1151.48 181.33, 1240.32 79.14 M960.18 401.4 C1019.4 333.28, 1078.61 265.16, 1240.32 79.14 M965.83 401 C1071.29 279.68, 1176.76 158.35, 1240.06 85.53 M965.83 401 C1026.35 331.38, 1086.87 261.76, 1240.06 85.53 M970.81 401.36 C1049.12 311.28, 1127.43 221.19, 1239.8 91.93 M970.81 401.36 C1045.99 314.88, 1121.16 228.41, 1239.8 91.93 M976.46 400.97 C1062.95 301.47, 1149.44 201.97, 1240.19 97.57 M976.46 400.97 C1055.39 310.16, 1134.33 219.35, 1240.19 97.57 M981.44 401.33 C1041.9 331.78, 1102.36 262.23, 1239.93 103.97 M981.44 401.33 C1045.93 327.14, 1110.42 252.96, 1239.93 103.97 M987.09 400.93 C1084.7 288.65, 1182.3 176.36, 1240.33 109.61 M987.09 400.93 C1073.54 301.48, 1160 202.02, 1240.33 109.61 M992.07 401.29 C1057.11 326.48, 1122.14 251.67, 1240.06 116.01 M992.07 401.29 C1069.67 312.03, 1147.26 222.77, 1240.06 116.01 M997.72 400.9 C1049.24 341.63, 1100.77 282.35, 1239.8 122.41 M997.72 400.9 C1049.2 341.67, 1100.68 282.45, 1239.8 122.41 M1002.7 401.26 C1078.76 313.77, 1154.81 226.28, 1240.2 128.05 M1002.7 401.26 C1070.3 323.5, 1137.9 245.74, 1240.2 128.05 M1008.35 400.86 C1093.46 302.96, 1178.57 205.05, 1239.94 134.45 M1008.35 400.86 C1089.92 307.02, 1171.5 213.18, 1239.94 134.45 M1013.33 401.22 C1082.22 321.98, 1151.11 242.73, 1240.33 140.09 M1013.33 401.22 C1082.12 322.1, 1150.9 242.97, 1240.33 140.09 M1018.98 400.83 C1065.04 347.84, 1111.1 294.85, 1240.07 146.49 M1018.98 400.83 C1079.27 331.47, 1139.57 262.1, 1240.07 146.49 M1023.96 401.19 C1101.5 312, 1179.03 222.81, 1239.81 152.89 M1023.96 401.19 C1095.17 319.28, 1166.37 237.37, 1239.81 152.89 M1029.61 400.79 C1112.96 304.9, 1196.32 209.01, 1240.2 158.53 M1029.61 400.79 C1084.38 337.79, 1139.15 274.78, 1240.2 158.53 M1034.59 401.15 C1113.89 309.94, 1193.18 218.72, 1239.94 164.93 M1034.59 401.15 C1086.02 342, 1137.44 282.84, 1239.94 164.93 M1040.24 400.76 C1118.67 310.53, 1197.11 220.3, 1240.34 170.57 M1040.24 400.76 C1095.02 337.74, 1149.81 274.71, 1240.34 170.57 M1045.23 401.12 C1110.42 326.12, 1175.62 251.11, 1240.07 176.97 M1045.23 401.12 C1117.97 317.44, 1190.71 233.76, 1240.07 176.97 M1050.87 400.73 C1118.97 322.38, 1187.07 244.04, 1239.81 183.37 M1050.87 400.73 C1097.49 347.09, 1144.11 293.46, 1239.81 183.37 M1055.86 401.09 C1112.36 336.08, 1168.87 271.08, 1240.21 189.01 M1055.86 401.09 C1116.82 330.95, 1177.79 260.82, 1240.21 189.01 M1061.5 400.69 C1109.02 346.02, 1156.54 291.35, 1239.95 195.41 M1061.5 400.69 C1130.24 321.61, 1198.99 242.53, 1239.95 195.41 M1066.49 401.05 C1110.86 350, 1155.24 298.95, 1240.34 201.05 M1066.49 401.05 C1132.22 325.44, 1197.95 249.82, 1240.34 201.05 M1071.47 401.41 C1134.93 328.41, 1198.39 255.41, 1240.08 207.45 M1071.47 401.41 C1116.84 349.23, 1162.2 297.04, 1240.08 207.45 M1077.12 401.02 C1123.63 347.51, 1170.14 294, 1239.82 213.85 M1077.12 401.02 C1125.02 345.91, 1172.93 290.8, 1239.82 213.85 M1082.1 401.38 C1138.84 336.1, 1195.59 270.83, 1240.21 219.49 M1082.1 401.38 C1137.66 337.47, 1193.22 273.55, 1240.21 219.49 M1087.75 400.98 C1141.77 338.84, 1195.79 276.69, 1239.95 225.89 M1087.75 400.98 C1130.7 351.57, 1173.65 302.16, 1239.95 225.89 M1092.73 401.34 C1149.37 336.19, 1206.01 271.04, 1240.35 231.53 M1092.73 401.34 C1130.94 357.39, 1169.15 313.43, 1240.35 231.53 M1098.38 400.95 C1150.88 340.55, 1203.39 280.14, 1240.08 237.93 M1098.38 400.95 C1136.24 357.39, 1174.11 313.82, 1240.08 237.93 M1103.36 401.31 C1133.68 366.43, 1164.01 331.55, 1239.82 244.33 M1103.36 401.31 C1143.15 355.54, 1182.93 309.77, 1239.82 244.33 M1109.01 400.91 C1147.37 356.78, 1185.74 312.65, 1240.22 249.97 M1109.01 400.91 C1161.33 340.72, 1213.66 280.52, 1240.22 249.97 M1113.99 401.27 C1157.75 350.93, 1201.51 300.59, 1239.96 256.37 M1113.99 401.27 C1154.68 354.47, 1195.36 307.67, 1239.96 256.37 M1119.64 400.88 C1147.61 368.7, 1175.59 336.51, 1240.35 262.01 M1119.64 400.88 C1161.84 352.33, 1204.05 303.77, 1240.35 262.01 M1124.62 401.24 C1151.62 370.18, 1178.62 339.12, 1240.09 268.41 M1124.62 401.24 C1159.27 361.38, 1193.93 321.51, 1240.09 268.41 M1130.27 400.84 C1168.77 356.55, 1207.28 312.25, 1239.83 274.81 M1130.27 400.84 C1153.92 373.63, 1177.58 346.41, 1239.83 274.81 M1135.25 401.2 C1162.29 370.1, 1189.33 339, 1240.22 280.45 M1135.25 401.2 C1171.29 359.75, 1207.32 318.3, 1240.22 280.45 M1140.9 400.81 C1177.14 359.12, 1213.38 317.42, 1239.96 286.85 M1140.9 400.81 C1162.42 376.05, 1183.94 351.29, 1239.96 286.85 M1145.88 401.17 C1183.32 358.1, 1220.76 315.03, 1240.36 292.49 M1145.88 401.17 C1169.16 374.4, 1192.43 347.62, 1240.36 292.49 M1151.53 400.78 C1172.86 376.23, 1194.2 351.69, 1240.09 298.89 M1151.53 400.78 C1186.66 360.36, 1221.8 319.94, 1240.09 298.89 M1156.51 401.14 C1183.94 369.58, 1211.38 338.02, 1239.83 305.29 M1156.51 401.14 C1187.89 365.04, 1219.26 328.95, 1239.83 305.29 M1162.16 400.74 C1185.12 374.33, 1208.08 347.91, 1240.23 310.93 M1162.16 400.74 C1187.19 371.94, 1212.23 343.14, 1240.23 310.93 M1167.14 401.1 C1191.7 372.86, 1216.25 344.61, 1239.97 317.33 M1167.14 401.1 C1194.43 369.72, 1221.71 338.33, 1239.97 317.33 M1172.79 400.71 C1192.69 377.81, 1212.59 354.92, 1240.36 322.97 M1172.79 400.71 C1198.41 371.23, 1224.03 341.75, 1240.36 322.97 M1177.77 401.07 C1190.39 386.55, 1203.01 372.04, 1240.1 329.37 M1177.77 401.07 C1193.65 382.81, 1209.52 364.54, 1240.1 329.37 M1183.42 400.67 C1203.89 377.12, 1224.36 353.58, 1239.84 335.77 M1183.42 400.67 C1199.53 382.14, 1215.63 363.61, 1239.84 335.77 M1188.4 401.03 C1204.42 382.61, 1220.43 364.19, 1240.23 341.41 M1188.4 401.03 C1204.18 382.89, 1219.95 364.74, 1240.23 341.41 M1193.39 401.39 C1206.02 386.86, 1218.65 372.34, 1239.97 347.81 M1193.39 401.39 C1210.93 381.22, 1228.46 361.05, 1239.97 347.81 M1199.03 401 C1213.18 384.73, 1227.32 368.46, 1240.37 353.45 M1199.03 401 C1214.93 382.72, 1230.82 364.43, 1240.37 353.45 M1204.02 401.36 C1216.41 387.11, 1228.79 372.86, 1240.1 359.85 M1204.02 401.36 C1215.29 388.39, 1226.56 375.43, 1240.1 359.85 M1209.66 400.96 C1221.41 387.45, 1233.15 373.94, 1239.84 366.25 M1209.66 400.96 C1216.6 392.99, 1223.53 385.01, 1239.84 366.25 M1214.65 401.32 C1223.72 390.89, 1232.79 380.46, 1240.24 371.89 M1214.65 401.32 C1224.29 390.24, 1233.93 379.15, 1240.24 371.89 M1220.29 400.93 C1224.99 395.53, 1229.68 390.13, 1239.98 378.29 M1220.29 400.93 C1227.14 393.05, 1233.98 385.18, 1239.98 378.29 M1225.28 401.29 C1228.78 397.27, 1232.27 393.25, 1240.37 383.93 M1225.28 401.29 C1230.96 394.75, 1236.65 388.21, 1240.37 383.93 M1230.92 400.89 C1233.5 397.93, 1236.07 394.97, 1240.11 390.33 M1230.92 400.89 C1233.86 397.51, 1236.8 394.13, 1240.11 390.33 M1235.91 401.25 C1237.3 399.65, 1238.69 398.05, 1239.85 396.73 M1235.91 401.25 C1237.26 399.7, 1238.61 398.15, 1239.85 396.73" stroke="#ced4da" stroke-width="0.5" fill="none"></path><path d="M0 0 C439.17 0, 878.34 0, 1240 0 M0 0 C445.89 0, 891.78 0, 1240 0 M1240 0 C1240 155.58, 1240 311.17, 1240 400 M1240 0 C1240 115.02, 1240 230.04, 1240 400 M1240 400 C914.65 400, 589.29 400, 0 400 M1240 400 C878.6 400, 517.19 400, 0 400 M0 400 C0 307.02, 0 214.05, 0 0 M0 400 C0 303.92, 0 207.85, 0 0" stroke="#000000" stroke-width="1" fill="none"></path></g><g transform="translate(810 390) rotate(0 17 9.5)"><text x="0" y="13" font-family="Helvetica, Segoe UI Emoji" font-size="16px" fill="#000000" text-anchor="start" style="white-space: pre;" direction="ltr">Data</text></g><g stroke-linecap="round" transform="translate(910 410) rotate(0 111.11111111111109 50)"><path d="M25 0 L197.22 0 L208.16 1.56 L212.46 3.52 L215.97 6.25 L218.71 9.77 L221.83 19.14 L222.22 75 L220.66 85.94 L218.71 90.23 L215.97 93.75 L212.46 96.48 L208.16 98.44 L197.22 100 L25 100 L14.06 98.44 L9.77 96.48 L6.25 93.75 L3.52 90.23 L0.39 80.86 L0.39 19.14 L3.52 9.77 L6.25 6.25 L9.77 3.52 L14.06 1.56 L25 0" stroke="none" stroke-width="0" fill="#ffffff"></path><path d="M25 0 M25 0 C74.6 0, 124.19 0, 197.22 0 M25 0 C70.27 0, 115.55 0, 197.22 0 M197.22 0 C213.89 0, 222.22 8.33, 222.22 25 M197.22 0 C213.89 0, 222.22 8.33, 222.22 25 M222.22 25 C222.22 39.09, 222.22 53.17, 222.22 75 M222.22 25 C222.22 35.54, 222.22 46.09, 222.22 75 M222.22 75 C222.22 91.67, 213.89 100, 197.22 100 M222.22 75 C222.22 91.67, 213.89 100, 197.22 100 M197.22 100 C147.53 100, 97.84 100, 25 100 M197.22 100 C144.21 100, 91.19 100, 25 100 M25 100 C8.33 100, 0 91.67, 0 75 M25 100 C8.33 100, 0 91.67, 0 75 M0 75 C0 64.38, 0 53.76, 0 25 M0 75 C0 62.83, 0 50.66, 0 25 M0 25 C0 8.33, 8.33 0, 25 0 M0 25 C0 8.33, 8.33 0, 25 0" stroke="#000000" stroke-width="2" fill="none"></path></g><g transform="translate(980.2777777777778 450.2777777777778) rotate(0 62.5 10)"><text x="0" y="14" font-family="Helvetica, Segoe UI Emoji" font-size="16.666666666666664px" fill="#000000" text-anchor="start" style="white-space: pre;" direction="ltr">SQLite database</text></g><g stroke-linecap="round"><g transform="translate(941.5648151768578 457.1111112170747) rotate(0 6.787036856015504 6.398149331410764)" fill-rule="evenodd"><path d="M0 0 L0 5.57 L13.57 12.8 L13.57 7.22 L0 0 L0 0" stroke="none" stroke-width="0" fill="#aecbfa" fill-rule="evenodd"></path><path d="M0 0 C0 1.54, 0 3.08, 0 5.57 M0 0 C0 1.41, 0 2.81, 0 5.57 M0 5.57 C3.01 7.17, 6.02 8.78, 13.57 12.8 M0 5.57 C3.05 7.2, 6.1 8.82, 13.57 12.8 M13.57 12.8 C13.57 10.66, 13.57 8.53, 13.57 7.22 M13.57 12.8 C13.57 10.72, 13.57 8.65, 13.57 7.22 M13.57 7.22 C8.47 4.51, 3.36 1.79, 0 0 M13.57 7.22 C9.31 4.95, 5.04 2.68, 0 0 M0 0 C0 0, 0 0, 0 0 M0 0 C0 0, 0 0, 0 0 M0 0 C0 0, 0 0, 0 0 M0 0 C0 0, 0 0, 0 0" stroke="#00000000" stroke-width="1" fill="none"></path></g></g><g stroke-linecap="round"><g transform="translate(941.5648151768578 465.7222233878242) rotate(0 6.787036856015504 6.398148006863039)" fill-rule="evenodd"><path d="M0 0 L0 5.57 L13.57 12.8 L13.57 7.22 L0 0 L0 0" stroke="none" stroke-width="0" fill="#aecbfa" fill-rule="evenodd"></path><path d="M0 0 C0 1.47, 0 2.94, 0 5.57 M0 0 C0 2.17, 0 4.34, 0 5.57 M0 5.57 C2.81 7.07, 5.62 8.57, 13.57 12.8 M0 5.57 C3.59 7.49, 7.19 9.4, 13.57 12.8 M13.57 12.8 C13.57 11.47, 13.57 10.15, 13.57 7.22 M13.57 12.8 C13.57 11.39, 13.57 9.98, 13.57 7.22 M13.57 7.22 C9.09 4.84, 4.61 2.45, 0 0 M13.57 7.22 C9.09 4.84, 4.6 2.45, 0 0 M0 0 C0 0, 0 0, 0 0 M0 0 C0 0, 0 0, 0 0 M0 0 C0 0, 0 0, 0 0 M0 0 C0 0, 0 0, 0 0" stroke="#00000000" stroke-width="1" fill="none"></path></g></g><g stroke-linecap="round"><g transform="translate(955.1388888888889 469.90740987989625) rotate(0 6.7870378494262695 -6.398149331410764)" fill-rule="evenodd"><path d="M0 0 L13.57 -7.22 L13.57 -12.8 L0 -5.57 L0 0 L0 0" stroke="none" stroke-width="0" fill="#669df6" fill-rule="evenodd"></path><path d="M0 0 C4.17 -2.22, 8.34 -4.44, 13.57 -7.22 M0 0 C5.08 -2.7, 10.16 -5.41, 13.57 -7.22 M13.57 -7.22 C13.57 -8.56, 13.57 -9.9, 13.57 -12.8 M13.57 -7.22 C13.57 -9.29, 13.57 -11.36, 13.57 -12.8 M13.57 -12.8 C8.86 -10.29, 4.15 -7.78, 0 -5.57 M13.57 -12.8 C10.01 -10.9, 6.44 -9, 0 -5.57 M0 -5.57 C0 -4.25, 0 -2.92, 0 0 M0 -5.57 C0 -4.4, 0 -3.22, 0 0 M0 0 C0 0, 0 0, 0 0 M0 0 C0 0, 0 0, 0 0 M0 0 C0 0, 0 0, 0 0 M0 0 C0 0, 0 0, 0 0" stroke="#00000000" stroke-width="1" fill="none"></path></g></g><g stroke-linecap="round"><g transform="translate(955.1388888888889 478.5185194015503) rotate(0 6.7870378494262695 -6.398148006863039)" fill-rule="evenodd"><path d="M0 0 L13.57 -7.22 L13.57 -12.8 L0 -5.57 L0 0 L0 0" stroke="none" stroke-width="0" fill="#669df6" fill-rule="evenodd"></path><path d="M0 0 C3.29 -1.75, 6.58 -3.5, 13.57 -7.22 M0 0 C4.04 -2.15, 8.08 -4.3, 13.57 -7.22 M13.57 -7.22 C13.57 -8.75, 13.57 -10.28, 13.57 -12.8 M13.57 -7.22 C13.57 -8.7, 13.57 -10.18, 13.57 -12.8 M13.57 -12.8 C10.65 -11.24, 7.72 -9.68, 0 -5.57 M13.57 -12.8 C9.37 -10.56, 5.16 -8.32, 0 -5.57 M0 -5.57 C0 -4.3, 0 -3.02, 0 0 M0 -5.57 C0 -4.12, 0 -2.67, 0 0 M0 0 C0 0, 0 0, 0 0 M0 0 C0 0, 0 0, 0 0 M0 0 C0 0, 0 0, 0 0 M0 0 C0 0, 0 0, 0 0" stroke="#00000000" stroke-width="1" fill="none"></path></g></g><g stroke-linecap="round"><g transform="translate(968.7129645877415 454.27777793672385) rotate(0 -6.7870378494262695 -6.398148172431547)" fill-rule="evenodd"><path d="M0 0 L0 -5.57 L-13.57 -12.8 L-13.57 -7.22 L0 0 L0 0" stroke="none" stroke-width="0" fill="#4285f4" fill-rule="evenodd"></path><path d="M0 0 C0 -2.07, 0 -4.14, 0 -5.57 M0 0 C0 -1.93, 0 -3.86, 0 -5.57 M0 -5.57 C-3.32 -7.34, -6.63 -9.1, -13.57 -12.8 M0 -5.57 C-4.81 -8.13, -9.62 -10.69, -13.57 -12.8 M-13.57 -12.8 C-13.57 -11.01, -13.57 -9.22, -13.57 -7.22 M-13.57 -12.8 C-13.57 -11.05, -13.57 -9.3, -13.57 -7.22 M-13.57 -7.22 C-8.6 -4.57, -3.62 -1.92, 0 0 M-13.57 -7.22 C-10.65 -5.67, -7.72 -4.11, 0 0 M0 0 C0 0, 0 0, 0 0 M0 0 C0 0, 0 0, 0 0 M0 0 C0 0, 0 0, 0 0 M0 0 C0 0, 0 0, 0 0" stroke="#00000000" stroke-width="1" fill="none"></path></g></g><g stroke-linecap="round"><g transform="translate(955.1388888888888 441.48148159186076) rotate(0 -6.787036856015504 6.398148172431547)" fill-rule="evenodd"><path d="M0 0 L-13.57 7.22 L-13.57 12.8 L0 5.57 L0 0 L0 0" stroke="none" stroke-width="0" fill="#669df6" fill-rule="evenodd"></path><path d="M0 0 C-4.03 2.14, -8.05 4.28, -13.57 7.22 M0 0 C-3.95 2.1, -7.91 4.21, -13.57 7.22 M-13.57 7.22 C-13.57 8.47, -13.57 9.71, -13.57 12.8 M-13.57 7.22 C-13.57 8.89, -13.57 10.56, -13.57 12.8 M-13.57 12.8 C-8.73 10.22, -3.89 7.65, 0 5.57 M-13.57 12.8 C-8.26 9.97, -2.95 7.14, 0 5.57 M0 5.57 C0 4.24, 0 2.92, 0 0 M0 5.57 C0 4.43, 0 3.28, 0 0 M0 0 C0 0, 0 0, 0 0 M0 0 C0 0, 0 0, 0 0 M0 0 C0 0, 0 0, 0 0 M0 0 C0 0, 0 0, 0 0" stroke="#00000000" stroke-width="1" fill="none"></path></g></g><g stroke-linecap="round"><g transform="translate(941.5648151768578 448.6481483777361) rotate(0 6.787036856015504 6.407407257291993)" fill-rule="evenodd"><path d="M0 0 L0 5.59 L13.57 12.81 L13.57 7.22 L0 0 L0 0" stroke="none" stroke-width="0" fill="#aecbfa" fill-rule="evenodd"></path><path d="M0 0 C0 1.19, 0 2.38, 0 5.59 M0 0 C0 2.01, 0 4.02, 0 5.59 M0 5.59 C3.5 7.46, 7 9.32, 13.57 12.81 M0 5.59 C4.22 7.84, 8.44 10.08, 13.57 12.81 M13.57 12.81 C13.57 11.2, 13.57 9.59, 13.57 7.22 M13.57 12.81 C13.57 11.28, 13.57 9.74, 13.57 7.22 M13.57 7.22 C9.75 5.19, 5.93 3.15, 0 0 M13.57 7.22 C9.95 5.29, 6.32 3.36, 0 0 M0 0 C0 0, 0 0, 0 0 M0 0 C0 0, 0 0, 0 0 M0 0 C0 0, 0 0, 0 0 M0 0 C0 0, 0 0, 0 0" stroke="#00000000" stroke-width="1" fill="none"></path></g></g><g stroke-linecap="round"><g transform="translate(955.1388888888889 461.4629628923201) rotate(0 6.7870378494262695 -6.407407257291993)" fill-rule="evenodd"><path d="M0 0 L13.57 -7.22 L13.57 -12.81 L0 -5.59 L0 0 L0 0" stroke="none" stroke-width="0" fill="#669df6" fill-rule="evenodd"></path><path d="M0 0 C2.88 -1.53, 5.75 -3.06, 13.57 -7.22 M0 0 C3.12 -1.66, 6.25 -3.32, 13.57 -7.22 M13.57 -7.22 C13.57 -8.36, 13.57 -9.5, 13.57 -12.81 M13.57 -7.22 C13.57 -8.42, 13.57 -9.62, 13.57 -12.81 M13.57 -12.81 C8.85 -10.3, 4.13 -7.79, 0 -5.59 M13.57 -12.81 C10.74 -11.31, 7.9 -9.8, 0 -5.59 M0 -5.59 C0 -4.17, 0 -2.74, 0 0 M0 -5.59 C0 -3.8, 0 -2, 0 0 M0 0 C0 0, 0 0, 0 0 M0 0 C0 0, 0 0, 0 0 M0 0 C0 0, 0 0, 0 0 M0 0 C0 0, 0 0, 0 0" stroke="#00000000" stroke-width="1" fill="none"></path></g></g><g stroke-linecap="round" transform="translate(30 190) rotate(0 100 61.53846153846155)"><path d="M30.77 0 L169.23 0 L176.44 0.48 L182.69 1.92 L187.98 4.33 L192.31 7.69 L195.67 12.02 L198.08 17.31 L199.52 23.56 L200 92.31 L199.52 99.52 L198.08 105.77 L195.67 111.06 L192.31 115.38 L187.98 118.75 L182.69 121.15 L176.44 122.6 L169.23 123.08 L30.77 123.08 L23.56 122.6 L17.31 121.15 L12.02 118.75 L7.69 115.38 L4.33 111.06 L1.92 105.77 L0.48 99.52 L0.48 23.56 L1.92 17.31 L4.33 12.02 L7.69 7.69 L12.02 4.33 L17.31 1.92 L23.56 0.48 L30.77 0" stroke="none" stroke-width="0" fill="#DEDEDE"></path><path d="M30.77 0 M30.77 0 C60.94 0, 91.12 0, 169.23 0 M30.77 0 C79.21 0, 127.66 0, 169.23 0 M169.23 0 C189.74 0, 200 10.26, 200 30.77 M169.23 0 C189.74 0, 200 10.26, 200 30.77 M200 30.77 C200 48.39, 200 66.01, 200 92.31 M200 30.77 C200 45.27, 200 59.78, 200 92.31 M200 92.31 C200 112.82, 189.74 123.08, 169.23 123.08 M200 92.31 C200 112.82, 189.74 123.08, 169.23 123.08 M169.23 123.08 C120.06 123.08, 70.89 123.08, 30.77 123.08 M169.23 123.08 C138.28 123.08, 107.32 123.08, 30.77 123.08 M30.77 123.08 C10.26 123.08, 0 112.82, 0 92.31 M30.77 123.08 C10.26 123.08, 0 112.82, 0 92.31 M0 92.31 C0 69.97, 0 47.62, 0 30.77 M0 92.31 C0 73.23, 0 54.15, 0 30.77 M0 30.77 C0 10.26, 10.26 0, 30.77 0 M0 30.77 C0 10.26, 10.26 0, 30.77 0" stroke="#000" stroke-width="2" fill="none"></path></g><g transform="translate(129.08735332464175 241.19513255106403) rotate(0 20 11.923076923076906)"><text x="0" y="16.84615384615384" font-family="Helvetica, Segoe UI Emoji" font-size="19.81747066492829px" fill="#000000" text-anchor="start" style="white-space: pre;" direction="ltr">VPS</text></g><g stroke-linecap="round"><g transform="translate(54.77183833115896 225.50630160799665) rotate(0 28.90047805302038 28.90047805302038)" fill-rule="evenodd"><path d="M0 0 L57.8 0 L57.8 57.8 L0 57.8 L0 0" stroke="none" stroke-width="0" fill="#00000000" fill-rule="evenodd"></path><path d="M0 0 C19.01 0, 38.03 0, 57.8 0 M0 0 C11.58 0, 23.16 0, 57.8 0 M57.8 0 C57.8 12.11, 57.8 24.22, 57.8 57.8 M57.8 0 C57.8 17.48, 57.8 34.97, 57.8 57.8 M57.8 57.8 C34.91 57.8, 12.01 57.8, 0 57.8 M57.8 57.8 C37.27 57.8, 16.73 57.8, 0 57.8 M0 57.8 C0 36.53, 0 15.26, 0 0 M0 57.8 C0 42.9, 0 28, 0 0 M0 0 C0 0, 0 0, 0 0 M0 0 C0 0, 0 0, 0 0" stroke="#00000000" stroke-width="1" fill="none"></path></g></g><g stroke-linecap="round"><g transform="translate(102.93930385279646 256.81515388206753) rotate(0 -19.26698746861507 9.633492159356479)" fill-rule="evenodd"><path d="M0 0 L-38.53 0 L-38.53 0 L-40.23 0.71 L-40.94 2.41 L-40.94 16.86 L-40.94 16.86 L-40.23 18.56 L-38.53 19.27 L0 19.27 L0 19.27 L1.7 18.56 L2.41 16.86 L2.41 2.41 L2.41 2.41 L1.7 0.71 L0 0 L0 0" stroke="none" stroke-width="0" fill="#000" fill-rule="evenodd"></path><path d="M0 0 C-13.49 0, -26.98 0, -38.53 0 M0 0 C-10.9 0, -21.79 0, -38.53 0 M-38.53 0 C-38.53 0, -38.53 0, -38.53 0 M-38.53 0 C-38.53 0, -38.53 0, -38.53 0 M-38.53 0 C-39.13 0.25, -39.72 0.49, -40.23 0.71 M-38.53 0 C-38.95 0.17, -39.37 0.35, -40.23 0.71 M-40.23 0.71 C-40.49 1.33, -40.75 1.95, -40.94 2.41 M-40.23 0.71 C-40.46 1.24, -40.68 1.77, -40.94 2.41 M-40.94 2.41 C-40.94 7.15, -40.94 11.9, -40.94 16.86 M-40.94 2.41 C-40.94 6.28, -40.94 10.14, -40.94 16.86 M-40.94 16.86 C-40.94 16.86, -40.94 16.86, -40.94 16.86 M-40.94 16.86 C-40.94 16.86, -40.94 16.86, -40.94 16.86 M-40.94 16.86 C-40.74 17.35, -40.53 17.84, -40.23 18.56 M-40.94 16.86 C-40.69 17.47, -40.44 18.08, -40.23 18.56 M-40.23 18.56 C-39.7 18.78, -39.17 19, -38.53 19.27 M-40.23 18.56 C-39.77 18.75, -39.3 18.95, -38.53 19.27 M-38.53 19.27 C-30.51 19.27, -22.48 19.27, 0 19.27 M-38.53 19.27 C-28 19.27, -17.46 19.27, 0 19.27 M0 19.27 C0 19.27, 0 19.27, 0 19.27 M0 19.27 C0 19.27, 0 19.27, 0 19.27 M0 19.27 C0.57 19.03, 1.14 18.79, 1.7 18.56 M0 19.27 C0.38 19.11, 0.76 18.95, 1.7 18.56 M1.7 18.56 C1.92 18.04, 2.14 17.51, 2.41 16.86 M1.7 18.56 C1.85 18.21, 1.99 17.85, 2.41 16.86 M2.41 16.86 C2.41 12.57, 2.41 8.28, 2.41 2.41 M2.41 16.86 C2.41 11.49, 2.41 6.12, 2.41 2.41 M2.41 2.41 C2.41 2.41, 2.41 2.41, 2.41 2.41 M2.41 2.41 C2.41 2.41, 2.41 2.41, 2.41 2.41 M2.41 2.41 C2.13 1.75, 1.86 1.09, 1.7 0.71 M2.41 2.41 C2.18 1.85, 1.94 1.29, 1.7 0.71 M1.7 0.71 C1.3 0.54, 0.89 0.37, 0 0 M1.7 0.71 C1.18 0.49, 0.67 0.28, 0 0 M0 0 C0 0, 0 0, 0 0 M0 0 C0 0, 0 0, 0 0 M0 0 C0 0, 0 0, 0 0 M0 0 C0 0, 0 0, 0 0" stroke="#00000000" stroke-width="1" fill="none"></path></g></g><g stroke-linecap="round"><g transform="translate(71.63045157872352 271.2653929085807) rotate(0 -7.874755283410195e-7 -4.816746867153711)" fill-rule="evenodd"><path d="M0 0 L0 0 L-1.87 -0.38 L-3.4 -1.41 L-4.44 -2.95 L-4.82 -4.82 L-4.44 -6.69 L-3.4 -8.22 L-1.87 -9.25 L0 -9.63 L1.87 -9.25 L3.4 -8.22 L4.44 -6.69 L4.82 -4.82 L4.44 -2.95 L3.4 -1.41 L1.87 -0.38 L0 0 L0 0" stroke="none" stroke-width="0" fill="#DEDEDE" fill-rule="evenodd"></path><path d="M0 0 C0 0, 0 0, 0 0 M0 0 C0 0, 0 0, 0 0 M0 0 C-0.73 -0.15, -1.46 -0.3, -1.87 -0.38 M0 0 C-0.74 -0.15, -1.49 -0.3, -1.87 -0.38 M-1.87 -0.38 C-2.2 -0.61, -2.54 -0.83, -3.4 -1.41 M-1.87 -0.38 C-2.28 -0.66, -2.7 -0.94, -3.4 -1.41 M-3.4 -1.41 C-3.64 -1.77, -3.88 -2.13, -4.44 -2.95 M-3.4 -1.41 C-3.66 -1.8, -3.92 -2.18, -4.44 -2.95 M-4.44 -2.95 C-4.56 -3.57, -4.69 -4.19, -4.82 -4.82 M-4.44 -2.95 C-4.58 -3.65, -4.72 -4.36, -4.82 -4.82 M-4.82 -4.82 C-4.72 -5.3, -4.62 -5.79, -4.44 -6.69 M-4.82 -4.82 C-4.67 -5.56, -4.52 -6.3, -4.44 -6.69 M-4.44 -6.69 C-4.08 -7.21, -3.72 -7.74, -3.4 -8.22 M-4.44 -6.69 C-4.1 -7.19, -3.76 -7.69, -3.4 -8.22 M-3.4 -8.22 C-2.8 -8.62, -2.2 -9.03, -1.87 -9.25 M-3.4 -8.22 C-2.86 -8.59, -2.32 -8.95, -1.87 -9.25 M-1.87 -9.25 C-1.43 -9.34, -1 -9.43, 0 -9.63 M-1.87 -9.25 C-1.48 -9.33, -1.09 -9.41, 0 -9.63 M0 -9.63 C0.38 -9.56, 0.75 -9.48, 1.87 -9.25 M0 -9.63 C0.49 -9.53, 0.97 -9.44, 1.87 -9.25 M1.87 -9.25 C2.31 -8.96, 2.75 -8.66, 3.4 -8.22 M1.87 -9.25 C2.31 -8.96, 2.74 -8.66, 3.4 -8.22 M3.4 -8.22 C3.62 -7.89, 3.84 -7.57, 4.44 -6.69 M3.4 -8.22 C3.79 -7.65, 4.17 -7.08, 4.44 -6.69 M4.44 -6.69 C4.59 -5.96, 4.73 -5.22, 4.82 -4.82 M4.44 -6.69 C4.55 -6.15, 4.66 -5.61, 4.82 -4.82 M4.82 -4.82 C4.66 -4.07, 4.51 -3.32, 4.44 -2.95 M4.82 -4.82 C4.67 -4.11, 4.53 -3.41, 4.44 -2.95 M4.44 -2.95 C4.09 -2.43, 3.74 -1.92, 3.4 -1.41 M4.44 -2.95 C4.1 -2.45, 3.76 -1.94, 3.4 -1.41 M3.4 -1.41 C2.96 -1.11, 2.51 -0.81, 1.87 -0.38 M3.4 -1.41 C2.98 -1.13, 2.55 -0.84, 1.87 -0.38 M1.87 -0.38 C1.29 -0.26, 0.71 -0.14, 0 0 M1.87 -0.38 C1.15 -0.23, 0.44 -0.09, 0 0 M0 0 C0 0, 0 0, 0 0 M0 0 C0 0, 0 0, 0 0 M0 0 C0 0, 0 0, 0 0 M0 0 C0 0, 0 0, 0 0" stroke="#00000000" stroke-width="1" fill="none"></path></g></g><g stroke-linecap="round"><g transform="translate(102.93930385279646 232.7314211212513) rotate(0 -19.26698746861507 9.633493734307535)" fill-rule="evenodd"><path d="M0 0 L-38.53 0 L-38.53 0 L-40.23 0.71 L-40.94 2.41 L-40.94 16.86 L-40.94 16.86 L-40.23 18.56 L-38.53 19.27 L0 19.27 L0 19.27 L1.7 18.56 L2.41 16.86 L2.41 2.41 L2.41 2.41 L1.7 0.71 L0 0 L0 0" stroke="none" stroke-width="0" fill="#000" fill-rule="evenodd"></path><path d="M0 0 C-9.84 0, -19.68 0, -38.53 0 M0 0 C-9.37 0, -18.74 0, -38.53 0 M-38.53 0 C-38.53 0, -38.53 0, -38.53 0 M-38.53 0 C-38.53 0, -38.53 0, -38.53 0 M-38.53 0 C-39.03 0.21, -39.52 0.41, -40.23 0.71 M-38.53 0 C-39.17 0.26, -39.81 0.53, -40.23 0.71 M-40.23 0.71 C-40.51 1.37, -40.79 2.03, -40.94 2.41 M-40.23 0.71 C-40.39 1.07, -40.54 1.44, -40.94 2.41 M-40.94 2.41 C-40.94 8.02, -40.94 13.64, -40.94 16.86 M-40.94 2.41 C-40.94 6.72, -40.94 11.04, -40.94 16.86 M-40.94 16.86 C-40.94 16.86, -40.94 16.86, -40.94 16.86 M-40.94 16.86 C-40.94 16.86, -40.94 16.86, -40.94 16.86 M-40.94 16.86 C-40.73 17.37, -40.52 17.89, -40.23 18.56 M-40.94 16.86 C-40.69 17.48, -40.43 18.09, -40.23 18.56 M-40.23 18.56 C-39.57 18.84, -38.9 19.11, -38.53 19.27 M-40.23 18.56 C-39.73 18.77, -39.22 18.98, -38.53 19.27 M-38.53 19.27 C-30.65 19.27, -22.78 19.27, 0 19.27 M-38.53 19.27 C-30.24 19.27, -21.95 19.27, 0 19.27 M0 19.27 C0 19.27, 0 19.27, 0 19.27 M0 19.27 C0 19.27, 0 19.27, 0 19.27 M0 19.27 C0.67 18.99, 1.34 18.71, 1.7 18.56 M0 19.27 C0.52 19.05, 1.04 18.84, 1.7 18.56 M1.7 18.56 C1.9 18.08, 2.1 17.59, 2.41 16.86 M1.7 18.56 C1.88 18.12, 2.06 17.68, 2.41 16.86 M2.41 16.86 C2.41 11.2, 2.41 5.55, 2.41 2.41 M2.41 16.86 C2.41 11.33, 2.41 5.79, 2.41 2.41 M2.41 2.41 C2.41 2.41, 2.41 2.41, 2.41 2.41 M2.41 2.41 C2.41 2.41, 2.41 2.41, 2.41 2.41 M2.41 2.41 C2.24 2, 2.07 1.59, 1.7 0.71 M2.41 2.41 C2.27 2.06, 2.12 1.72, 1.7 0.71 M1.7 0.71 C1.13 0.47, 0.56 0.23, 0 0 M1.7 0.71 C1.36 0.56, 1.02 0.42, 0 0 M0 0 C0 0, 0 0, 0 0 M0 0 C0 0, 0 0, 0 0 M0 0 C0 0, 0 0, 0 0 M0 0 C0 0, 0 0, 0 0" stroke="#00000000" stroke-width="1" fill="none"></path></g></g><g stroke-linecap="round"><g transform="translate(71.63045157872352 247.18166014776216) rotate(0 -7.874755283410195e-7 -4.8167460796781825)" fill-rule="evenodd"><path d="M0 0 L0 0 L-1.87 -0.38 L-3.4 -1.41 L-4.44 -2.95 L-4.82 -4.82 L-4.44 -6.69 L-3.4 -8.22 L-1.87 -9.25 L0 -9.63 L1.87 -9.25 L3.4 -8.22 L4.44 -6.69 L4.82 -4.82 L4.44 -2.95 L3.4 -1.41 L1.87 -0.38 L0 0 L0 0" stroke="none" stroke-width="0" fill="#DEDEDE" fill-rule="evenodd"></path><path d="M0 0 C0 0, 0 0, 0 0 M0 0 C0 0, 0 0, 0 0 M0 0 C-0.52 -0.11, -1.04 -0.21, -1.87 -0.38 M0 0 C-0.59 -0.12, -1.18 -0.24, -1.87 -0.38 M-1.87 -0.38 C-2.24 -0.63, -2.6 -0.87, -3.4 -1.41 M-1.87 -0.38 C-2.29 -0.67, -2.72 -0.95, -3.4 -1.41 M-3.4 -1.41 C-3.76 -1.95, -4.13 -2.49, -4.44 -2.95 M-3.4 -1.41 C-3.77 -1.96, -4.13 -2.5, -4.44 -2.95 M-4.44 -2.95 C-4.53 -3.42, -4.63 -3.89, -4.82 -4.82 M-4.44 -2.95 C-4.53 -3.39, -4.62 -3.84, -4.82 -4.82 M-4.82 -4.82 C-4.69 -5.42, -4.57 -6.02, -4.44 -6.69 M-4.82 -4.82 C-4.71 -5.33, -4.61 -5.83, -4.44 -6.69 M-4.44 -6.69 C-4.1 -7.19, -3.76 -7.69, -3.4 -8.22 M-4.44 -6.69 C-4.1 -7.19, -3.75 -7.7, -3.4 -8.22 M-3.4 -8.22 C-3.09 -8.43, -2.77 -8.64, -1.87 -9.25 M-3.4 -8.22 C-3.09 -8.43, -2.78 -8.64, -1.87 -9.25 M-1.87 -9.25 C-1.28 -9.37, -0.69 -9.49, 0 -9.63 M-1.87 -9.25 C-1.33 -9.36, -0.79 -9.47, 0 -9.63 M0 -9.63 C0.4 -9.55, 0.8 -9.47, 1.87 -9.25 M0 -9.63 C0.68 -9.5, 1.35 -9.36, 1.87 -9.25 M1.87 -9.25 C2.35 -8.93, 2.83 -8.6, 3.4 -8.22 M1.87 -9.25 C2.29 -8.97, 2.7 -8.69, 3.4 -8.22 M3.4 -8.22 C3.67 -7.82, 3.94 -7.43, 4.44 -6.69 M3.4 -8.22 C3.74 -7.72, 4.07 -7.22, 4.44 -6.69 M4.44 -6.69 C4.58 -5.98, 4.72 -5.28, 4.82 -4.82 M4.44 -6.69 C4.57 -6.01, 4.71 -5.33, 4.82 -4.82 M4.82 -4.82 C4.72 -4.34, 4.62 -3.86, 4.44 -2.95 M4.82 -4.82 C4.68 -4.16, 4.55 -3.5, 4.44 -2.95 M4.44 -2.95 C4.23 -2.63, 4.01 -2.32, 3.4 -1.41 M4.44 -2.95 C4.16 -2.54, 3.89 -2.13, 3.4 -1.41 M3.4 -1.41 C3.06 -1.19, 2.73 -0.96, 1.87 -0.38 M3.4 -1.41 C2.99 -1.13, 2.57 -0.85, 1.87 -0.38 M1.87 -0.38 C1.4 -0.28, 0.92 -0.19, 0 0 M1.87 -0.38 C1.48 -0.3, 1.08 -0.22, 0 0 M0 0 C0 0, 0 0, 0 0 M0 0 C0 0, 0 0, 0 0 M0 0 C0 0, 0 0, 0 0 M0 0 C0 0, 0 0, 0 0" stroke="#00000000" stroke-width="1" fill="none"></path></g></g><g stroke-linecap="round" transform="translate(10 10) rotate(0 620 72.94117647058818)"><path d="M0 0 L1240 0 L1240 145.88 L0 145.88" stroke="none" stroke-width="0" fill="#ced4da"></path><path d="M0 0 C368.59 0, 737.17 0, 1240 0 M0 0 C354.65 0, 709.31 0, 1240 0 M1240 0 C1240 38.22, 1240 76.45, 1240 145.88 M1240 0 C1240 42.43, 1240 84.87, 1240 145.88 M1240 145.88 C921.84 145.88, 603.69 145.88, 0 145.88 M1240 145.88 C758.05 145.88, 276.1 145.88, 0 145.88 M0 145.88 C0 92.04, 0 38.2, 0 0 M0 145.88 C0 114.27, 0 82.66, 0 0" stroke="#d5ecf8" stroke-width="1" fill="none"></path></g><g stroke-linecap="round"><g transform="translate(556.7549012452344 106.64705535901157) rotate(0 -31.607845111804693 -23.705878888421353)" fill-rule="evenodd"><path d="M0 0 L0 0 L3.06 -0.62 L5.56 -2.32 L7.25 -4.83 L7.86 -7.9 L7.9 -47.41 L7.9 -47.41 L7.28 -50.48 L5.58 -52.99 L3.07 -54.69 L0 -55.31 L-63.22 -55.31 L-63.22 -55.31 L-66.28 -54.69 L-68.8 -52.99 L-70.49 -50.48 L-71.12 -47.41 L-71.12 -7.9 L-71.12 -7.9 L-70.49 -4.83 L-68.8 -2.32 L-66.28 -0.62 L-63.22 0 L-79.02 0 L-79.02 7.9 L15.8 7.9 L15.8 0 L0 0 L0 0" stroke="none" stroke-width="0" fill="#000" fill-rule="evenodd"></path><path d="M0 0 C0 0, 0 0, 0 0 M0 0 C0 0, 0 0, 0 0 M0 0 C1.12 -0.23, 2.25 -0.46, 3.06 -0.62 M0 0 C0.97 -0.2, 1.94 -0.4, 3.06 -0.62 M3.06 -0.62 C3.69 -1.05, 4.31 -1.47, 5.56 -2.32 M3.06 -0.62 C3.9 -1.19, 4.74 -1.77, 5.56 -2.32 M5.56 -2.32 C5.92 -2.86, 6.29 -3.4, 7.25 -4.83 M5.56 -2.32 C5.94 -2.89, 6.33 -3.47, 7.25 -4.83 M7.25 -4.83 C7.47 -5.94, 7.69 -7.04, 7.86 -7.9 M7.25 -4.83 C7.37 -5.48, 7.5 -6.12, 7.86 -7.9 M7.86 -7.9 C7.87 -17.84, 7.88 -27.78, 7.9 -47.41 M7.86 -7.9 C7.87 -16.29, 7.88 -24.68, 7.9 -47.41 M7.9 -47.41 C7.9 -47.41, 7.9 -47.41, 7.9 -47.41 M7.9 -47.41 C7.9 -47.41, 7.9 -47.41, 7.9 -47.41 M7.9 -47.41 C7.66 -48.59, 7.42 -49.76, 7.28 -50.48 M7.9 -47.41 C7.68 -48.52, 7.45 -49.62, 7.28 -50.48 M7.28 -50.48 C6.61 -51.47, 5.95 -52.45, 5.58 -52.99 M7.28 -50.48 C6.64 -51.43, 5.99 -52.38, 5.58 -52.99 M5.58 -52.99 C4.78 -53.53, 3.98 -54.07, 3.07 -54.69 M5.58 -52.99 C5 -53.39, 4.41 -53.78, 3.07 -54.69 M3.07 -54.69 C2.28 -54.85, 1.49 -55.01, 0 -55.31 M3.07 -54.69 C2.23 -54.86, 1.39 -55.03, 0 -55.31 M0 -55.31 C-16.98 -55.31, -33.95 -55.31, -63.22 -55.31 M0 -55.31 C-23.2 -55.31, -46.39 -55.31, -63.22 -55.31 M-63.22 -55.31 C-63.22 -55.31, -63.22 -55.31, -63.22 -55.31 M-63.22 -55.31 C-63.22 -55.31, -63.22 -55.31, -63.22 -55.31 M-63.22 -55.31 C-63.97 -55.16, -64.72 -55.01, -66.28 -54.69 M-63.22 -55.31 C-64.36 -55.08, -65.5 -54.85, -66.28 -54.69 M-66.28 -54.69 C-66.87 -54.3, -67.45 -53.9, -68.8 -52.99 M-66.28 -54.69 C-66.94 -54.25, -67.6 -53.8, -68.8 -52.99 M-68.8 -52.99 C-69.41 -52.08, -70.03 -51.17, -70.49 -50.48 M-68.8 -52.99 C-69.19 -52.41, -69.58 -51.83, -70.49 -50.48 M-70.49 -50.48 C-70.68 -49.58, -70.86 -48.68, -71.12 -47.41 M-70.49 -50.48 C-70.74 -49.26, -70.99 -48.05, -71.12 -47.41 M-71.12 -47.41 C-71.12 -34.19, -71.12 -20.96, -71.12 -7.9 M-71.12 -47.41 C-71.12 -39.51, -71.12 -31.6, -71.12 -7.9 M-71.12 -7.9 C-71.12 -7.9, -71.12 -7.9, -71.12 -7.9 M-71.12 -7.9 C-71.12 -7.9, -71.12 -7.9, -71.12 -7.9 M-71.12 -7.9 C-70.88 -6.74, -70.64 -5.57, -70.49 -4.83 M-71.12 -7.9 C-70.93 -6.95, -70.73 -6.01, -70.49 -4.83 M-70.49 -4.83 C-69.85 -3.88, -69.21 -2.93, -68.8 -2.32 M-70.49 -4.83 C-69.86 -3.9, -69.23 -2.96, -68.8 -2.32 M-68.8 -2.32 C-68.01 -1.79, -67.22 -1.25, -66.28 -0.62 M-68.8 -2.32 C-68.14 -1.88, -67.49 -1.44, -66.28 -0.62 M-66.28 -0.62 C-65.16 -0.4, -64.04 -0.17, -63.22 0 M-66.28 -0.62 C-65.37 -0.44, -64.47 -0.25, -63.22 0 M-63.22 0 C-67.32 0, -71.42 0, -79.02 0 M-63.22 0 C-68.47 0, -73.72 0, -79.02 0 M-79.02 0 C-79.02 2.7, -79.02 5.4, -79.02 7.9 M-79.02 0 C-79.02 1.87, -79.02 3.74, -79.02 7.9 M-79.02 7.9 C-47.11 7.9, -15.2 7.9, 15.8 7.9 M-79.02 7.9 C-53.05 7.9, -27.09 7.9, 15.8 7.9 M15.8 7.9 C15.8 6.19, 15.8 4.47, 15.8 0 M15.8 7.9 C15.8 4.8, 15.8 1.7, 15.8 0 M15.8 0 C9.99 0, 4.17 0, 0 0 M15.8 0 C12.51 0, 9.22 0, 0 0 M0 0 C0 0, 0 0, 0 0 M0 0 C0 0, 0 0, 0 0 M0 0 C0 0, 0 0, 0 0 M0 0 C0 0, 0 0, 0 0" stroke="#00000000" stroke-width="1" fill="none"></path></g></g><g stroke-linecap="round"><g transform="translate(493.5392152605673 59.235293343222565) rotate(0 31.607842992333815 19.754901781897388)" fill-rule="evenodd"><path d="M0 0 L63.22 0 L63.22 39.51 L0 39.51 L0 0" stroke="none" stroke-width="0" fill="#ffffff" fill-rule="evenodd"></path><path d="M0 0 C24.03 0, 48.05 0, 63.22 0 M0 0 C18.91 0, 37.82 0, 63.22 0 M63.22 0 C63.22 10.93, 63.22 21.86, 63.22 39.51 M63.22 0 C63.22 14.8, 63.22 29.59, 63.22 39.51 M63.22 39.51 C44.9 39.51, 26.58 39.51, 0 39.51 M63.22 39.51 C50.5 39.51, 37.78 39.51, 0 39.51 M0 39.51 C0 23.98, 0 8.45, 0 0 M0 39.51 C0 30.95, 0 22.39, 0 0 M0 0 C0 0, 0 0, 0 0 M0 0 C0 0, 0 0, 0 0" stroke="#00000000" stroke-width="1" fill="none"></path></g></g><g stroke-linecap="round"><g transform="translate(704.930481921195 47.718324424966795) rotate(0 -16.024956657620407 35.22285204562456)" fill-rule="evenodd"><path d="M0 0 L-32.05 -0.03 L-32.05 -0.03 L-34.54 0.47 L-36.58 1.85 L-37.95 3.89 L-38.46 6.38 L-38.46 64.07 L-38.46 64.07 L-37.95 66.56 L-36.58 68.59 L-34.54 69.97 L-32.05 70.48 L0 70.48 L0 70.48 L2.49 69.97 L4.53 68.59 L5.9 66.56 L6.41 64.07 L6.41 6.38 L6.41 6.38 L5.9 3.89 L4.53 1.87 L2.49 0.5 L0 0 L0 0" stroke="none" stroke-width="0" fill="#000" fill-rule="evenodd"></path><path d="M0 0 C-9.28 -0.01, -18.55 -0.02, -32.05 -0.03 M0 0 C-12.73 -0.01, -25.45 -0.03, -32.05 -0.03 M-32.05 -0.03 C-32.05 -0.03, -32.05 -0.03, -32.05 -0.03 M-32.05 -0.03 C-32.05 -0.03, -32.05 -0.03, -32.05 -0.03 M-32.05 -0.03 C-32.72 0.1, -33.4 0.24, -34.54 0.47 M-32.05 -0.03 C-32.84 0.13, -33.63 0.29, -34.54 0.47 M-34.54 0.47 C-35.33 1.01, -36.12 1.54, -36.58 1.85 M-34.54 0.47 C-34.99 0.78, -35.43 1.08, -36.58 1.85 M-36.58 1.85 C-36.91 2.35, -37.25 2.85, -37.95 3.89 M-36.58 1.85 C-36.95 2.41, -37.33 2.96, -37.95 3.89 M-37.95 3.89 C-38.08 4.51, -38.21 5.13, -38.46 6.38 M-37.95 3.89 C-38.14 4.78, -38.32 5.67, -38.46 6.38 M-38.46 6.38 C-38.46 20.46, -38.46 34.54, -38.46 64.07 M-38.46 6.38 C-38.46 23.69, -38.46 41, -38.46 64.07 M-38.46 64.07 C-38.46 64.07, -38.46 64.07, -38.46 64.07 M-38.46 64.07 C-38.46 64.07, -38.46 64.07, -38.46 64.07 M-38.46 64.07 C-38.36 64.58, -38.25 65.09, -37.95 66.56 M-38.46 64.07 C-38.35 64.59, -38.25 65.11, -37.95 66.56 M-37.95 66.56 C-37.54 67.17, -37.13 67.78, -36.58 68.59 M-37.95 66.56 C-37.63 67.03, -37.32 67.5, -36.58 68.59 M-36.58 68.59 C-36.03 68.96, -35.49 69.33, -34.54 69.97 M-36.58 68.59 C-35.99 68.99, -35.41 69.39, -34.54 69.97 M-34.54 69.97 C-33.83 70.12, -33.11 70.26, -32.05 70.48 M-34.54 69.97 C-34.01 70.08, -33.49 70.19, -32.05 70.48 M-32.05 70.48 C-23.56 70.48, -15.06 70.48, 0 70.48 M-32.05 70.48 C-19.55 70.48, -7.05 70.48, 0 70.48 M0 70.48 C0 70.48, 0 70.48, 0 70.48 M0 70.48 C0 70.48, 0 70.48, 0 70.48 M0 70.48 C0.6 70.36, 1.2 70.23, 2.49 69.97 M0 70.48 C0.62 70.35, 1.24 70.23, 2.49 69.97 M2.49 69.97 C3.23 69.47, 3.98 68.96, 4.53 68.59 M2.49 69.97 C3.18 69.51, 3.87 69.04, 4.53 68.59 M4.53 68.59 C4.99 67.91, 5.45 67.22, 5.9 66.56 M4.53 68.59 C5.04 67.84, 5.54 67.09, 5.9 66.56 M5.9 66.56 C6.04 65.89, 6.17 65.22, 6.41 64.07 M5.9 66.56 C6.09 65.63, 6.28 64.71, 6.41 64.07 M6.41 64.07 C6.41 47.08, 6.41 30.1, 6.41 6.38 M6.41 64.07 C6.41 45.06, 6.41 26.05, 6.41 6.38 M6.41 6.38 C6.41 6.38, 6.41 6.38, 6.41 6.38 M6.41 6.38 C6.41 6.38, 6.41 6.38, 6.41 6.38 M6.41 6.38 C6.23 5.48, 6.05 4.59, 5.9 3.89 M6.41 6.38 C6.27 5.68, 6.13 4.98, 5.9 3.89 M5.9 3.89 C5.56 3.38, 5.21 2.87, 4.53 1.87 M5.9 3.89 C5.47 3.26, 5.04 2.63, 4.53 1.87 M4.53 1.87 C3.75 1.35, 2.98 0.83, 2.49 0.5 M4.53 1.87 C4.02 1.53, 3.52 1.19, 2.49 0.5 M2.49 0.5 C1.61 0.32, 0.73 0.15, 0 0 M2.49 0.5 C1.63 0.33, 0.77 0.15, 0 0 M0 0 C0 0, 0 0, 0 0 M0 0 C0 0, 0 0, 0 0 M0 0 C0 0, 0 0, 0 0 M0 0 C0 0, 0 0, 0 0" stroke="#00000000" stroke-width="1" fill="none"></path></g></g><g stroke-linecap="round"><g transform="translate(704.9304819211939 105.37611306904478) rotate(0 -16.024955511426356 -22.4349370282805)" fill-rule="evenodd"><path d="M0 0 L-32.05 0 L-32.05 -44.87 L0 -44.87 L0 0" stroke="none" stroke-width="0" fill="#ffffff" fill-rule="evenodd"></path><path d="M0 0 C-12.31 0, -24.62 0, -32.05 0 M0 0 C-7.23 0, -14.45 0, -32.05 0 M-32.05 0 C-32.05 -12.99, -32.05 -25.97, -32.05 -44.87 M-32.05 0 C-32.05 -10.59, -32.05 -21.17, -32.05 -44.87 M-32.05 -44.87 C-21.08 -44.87, -10.1 -44.87, 0 -44.87 M-32.05 -44.87 C-20.21 -44.87, -8.37 -44.87, 0 -44.87 M0 -44.87 C0 -33.13, 0 -21.38, 0 0 M0 -44.87 C0 -33.45, 0 -22.04, 0 0 M0 0 C0 0, 0 0, 0 0 M0 0 C0 0, 0 0, 0 0" stroke="#00000000" stroke-width="1" fill="none"></path></g></g><g transform="translate(26.411764705883343 22.764705882354974) rotate(0 35.55882352941171 13.676470588235247)"><text x="0" y="18.352941176470573" font-family="Helvetica, Segoe UI Emoji" font-size="23.10441754578024px" fill="#8a8888" text-anchor="start" style="white-space: pre;" direction="ltr">Clients</text></g><g stroke-opacity="0.8" fill-opacity="0.8" stroke-linecap="round" transform="translate(490 230) rotate(0 113.46153846153845 50)"><path d="M25 0 L201.92 0 L212.86 1.56 L217.16 3.52 L220.67 6.25 L223.41 9.77 L226.53 19.14 L226.92 75 L225.36 85.94 L223.41 90.23 L220.67 93.75 L217.16 96.48 L212.86 98.44 L201.92 100 L25 100 L14.06 98.44 L9.77 96.48 L6.25 93.75 L3.52 90.23 L0.39 80.86 L0.39 19.14 L3.52 9.77 L6.25 6.25 L9.77 3.52 L14.06 1.56 L25 0" stroke="none" stroke-width="0" fill="#DEDEDE"></path><path d="M25 0 M25 0 C84.24 0, 143.48 0, 201.92 0 M25 0 C79.3 0, 133.6 0, 201.92 0 M201.92 0 C218.59 0, 226.92 8.33, 226.92 25 M201.92 0 C218.59 0, 226.92 8.33, 226.92 25 M226.92 25 C226.92 40.08, 226.92 55.16, 226.92 75 M226.92 25 C226.92 36.6, 226.92 48.2, 226.92 75 M226.92 75 C226.92 91.67, 218.59 100, 201.92 100 M226.92 75 C226.92 91.67, 218.59 100, 201.92 100 M201.92 100 C157.19 100, 112.47 100, 25 100 M201.92 100 C160.61 100, 119.3 100, 25 100 M25 100 C8.33 100, 0 91.67, 0 75 M25 100 C8.33 100, 0 91.67, 0 75 M0 75 C0 60.3, 0 45.59, 0 25 M0 75 C0 59.05, 0 43.09, 0 25 M0 25 C0 8.33, 8.33 0, 25 0 M0 25 C0 8.33, 8.33 0, 25 0" stroke="#000" stroke-width="2" fill="none"></path></g><g stroke-opacity="0.8" fill-opacity="0.8" transform="translate(566.9230769230767 269.74358974358984) rotate(0 50 10.256410256410277)"><text x="0" y="15.512820512820511" font-family="Helvetica, Segoe UI Emoji" font-size="15.384615384615383px" fill="#000000" text-anchor="start" style="white-space: pre;" direction="ltr">Load Balancer</text></g><g stroke-opacity="0.8" fill-opacity="0.8" transform="translate(566.9230769230767 290.25641025641016) rotate(0 19.230769230769226 8.974358974359006)"><text x="0" y="12.948717948717949" font-family="Helvetica, Segoe UI Emoji" font-size="15.384615384615383px" fill="#B5B9BF" text-anchor="start" style="white-space: pre;" direction="ltr">nginx</text></g><g stroke-linecap="round"><g stroke-opacity="0.8" fill-opacity="0.8" transform="translate(509.23076923076906 257.56410256410254) rotate(0 22.43589743589746 22.43589743589746)" fill-rule="evenodd"><path d="M0 0 L44.87 0 L44.87 44.87 L0 44.87 L0 0" stroke="none" stroke-width="0" fill="#00000000" fill-rule="evenodd"></path><path d="M0 0 C15.83 0, 31.66 0, 44.87 0 M0 0 C9.54 0, 19.07 0, 44.87 0 M44.87 0 C44.87 12.71, 44.87 25.43, 44.87 44.87 M44.87 0 C44.87 17.9, 44.87 35.8, 44.87 44.87 M44.87 44.87 C29.41 44.87, 13.94 44.87, 0 44.87 M44.87 44.87 C31.1 44.87, 17.33 44.87, 0 44.87 M0 44.87 C0 27.02, 0 9.17, 0 0 M0 44.87 C0 34.46, 0 24.05, 0 0 M0 0 C0 0, 0 0, 0 0 M0 0 C0 0, 0 0, 0 0" stroke="#00000000" stroke-width="1" fill="none"></path></g></g><g stroke-linecap="round"><g stroke-opacity="0.8" fill-opacity="0.8" transform="translate(541.0149588951698 287.47863329373854) rotate(0 -9.348292228503112 -7.478633293738767)" fill-rule="evenodd"><path d="M0 0 L-7.48 -7.48 L-7.48 -13.42 L-7.48 -13.42 L-5.98 -14.24 L-4.8 -15.44 L-4.02 -16.96 L-3.74 -18.7 L-4.18 -20.88 L-5.38 -22.66 L-7.16 -23.87 L-9.35 -24.31 L-11.53 -23.87 L-13.32 -22.66 L-14.52 -20.88 L-14.96 -18.7 L-14.68 -16.96 L-13.9 -15.44 L-12.72 -14.24 L-11.22 -13.42 L-11.22 -7.48 L-18.7 0 L-26.18 0 L-26.18 9.35 L-16.83 9.35 L-16.83 3.65 L-9.35 -4.21 L-1.87 3.65 L-1.87 9.35 L7.48 9.35 L7.48 0 L0 0 L0 0" stroke="none" stroke-width="0" fill="#000" fill-rule="evenodd"></path><path d="M0 0 C-1.53 -1.53, -3.06 -3.06, -7.48 -7.48 M0 0 C-2.16 -2.16, -4.32 -4.32, -7.48 -7.48 M-7.48 -7.48 C-7.48 -8.85, -7.48 -10.22, -7.48 -13.42 M-7.48 -7.48 C-7.48 -8.68, -7.48 -9.89, -7.48 -13.42 M-7.48 -13.42 C-7.48 -13.42, -7.48 -13.42, -7.48 -13.42 M-7.48 -13.42 C-7.48 -13.42, -7.48 -13.42, -7.48 -13.42 M-7.48 -13.42 C-6.9 -13.74, -6.32 -14.05, -5.98 -14.24 M-7.48 -13.42 C-6.99 -13.69, -6.51 -13.95, -5.98 -14.24 M-5.98 -14.24 C-5.69 -14.53, -5.4 -14.83, -4.8 -15.44 M-5.98 -14.24 C-5.58 -14.64, -5.18 -15.05, -4.8 -15.44 M-4.8 -15.44 C-4.52 -15.98, -4.24 -16.52, -4.02 -16.96 M-4.8 -15.44 C-4.59 -15.84, -4.39 -16.24, -4.02 -16.96 M-4.02 -16.96 C-3.91 -17.62, -3.81 -18.28, -3.74 -18.7 M-4.02 -16.96 C-3.92 -17.6, -3.81 -18.24, -3.74 -18.7 M-3.74 -18.7 C-3.84 -19.2, -3.94 -19.71, -4.18 -20.88 M-3.74 -18.7 C-3.86 -19.28, -3.97 -19.86, -4.18 -20.88 M-4.18 -20.88 C-4.49 -21.35, -4.81 -21.81, -5.38 -22.66 M-4.18 -20.88 C-4.63 -21.55, -5.07 -22.21, -5.38 -22.66 M-5.38 -22.66 C-5.98 -23.07, -6.59 -23.48, -7.16 -23.87 M-5.38 -22.66 C-5.89 -23.01, -6.4 -23.35, -7.16 -23.87 M-7.16 -23.87 C-7.68 -23.97, -8.2 -24.07, -9.35 -24.31 M-7.16 -23.87 C-7.68 -23.97, -8.2 -24.08, -9.35 -24.31 M-9.35 -24.31 C-10.05 -24.17, -10.74 -24.02, -11.53 -23.87 M-9.35 -24.31 C-9.95 -24.19, -10.55 -24.06, -11.53 -23.87 M-11.53 -23.87 C-12.11 -23.48, -12.69 -23.09, -13.32 -22.66 M-11.53 -23.87 C-12.08 -23.5, -12.63 -23.13, -13.32 -22.66 M-13.32 -22.66 C-13.61 -22.23, -13.9 -21.8, -14.52 -20.88 M-13.32 -22.66 C-13.66 -22.15, -14 -21.64, -14.52 -20.88 M-14.52 -20.88 C-14.66 -20.2, -14.79 -19.51, -14.96 -18.7 M-14.52 -20.88 C-14.64 -20.29, -14.75 -19.71, -14.96 -18.7 M-14.96 -18.7 C-14.87 -18.17, -14.79 -17.65, -14.68 -16.96 M-14.96 -18.7 C-14.85 -18.04, -14.75 -17.38, -14.68 -16.96 M-14.68 -16.96 C-14.46 -16.54, -14.25 -16.12, -13.9 -15.44 M-14.68 -16.96 C-14.47 -16.55, -14.26 -16.14, -13.9 -15.44 M-13.9 -15.44 C-13.54 -15.07, -13.17 -14.7, -12.72 -14.24 M-13.9 -15.44 C-13.54 -15.07, -13.17 -14.7, -12.72 -14.24 M-12.72 -14.24 C-12.35 -14.04, -11.98 -13.84, -11.22 -13.42 M-12.72 -14.24 C-12.41 -14.07, -12.09 -13.9, -11.22 -13.42 M-11.22 -13.42 C-11.22 -12.23, -11.22 -11.04, -11.22 -7.48 M-11.22 -13.42 C-11.22 -12.05, -11.22 -10.68, -11.22 -7.48 M-11.22 -7.48 C-13.73 -4.97, -16.24 -2.45, -18.7 0 M-11.22 -7.48 C-12.91 -5.78, -14.61 -4.09, -18.7 0 M-18.7 0 C-21.27 0, -23.84 0, -26.18 0 M-18.7 0 C-20.27 0, -21.85 0, -26.18 0 M-26.18 0 C-26.18 2.19, -26.18 4.39, -26.18 9.35 M-26.18 0 C-26.18 2.11, -26.18 4.22, -26.18 9.35 M-26.18 9.35 C-24.11 9.35, -22.04 9.35, -16.83 9.35 M-26.18 9.35 C-23.29 9.35, -20.4 9.35, -16.83 9.35 M-16.83 9.35 C-16.83 7.63, -16.83 5.92, -16.83 3.65 M-16.83 9.35 C-16.83 7.32, -16.83 5.29, -16.83 3.65 M-16.83 3.65 C-14.28 0.97, -11.72 -1.71, -9.35 -4.21 M-16.83 3.65 C-14.67 1.38, -12.51 -0.88, -9.35 -4.21 M-9.35 -4.21 C-7.36 -2.12, -5.37 -0.03, -1.87 3.65 M-9.35 -4.21 C-6.97 -1.7, -4.58 0.8, -1.87 3.65 M-1.87 3.65 C-1.87 5.56, -1.87 7.48, -1.87 9.35 M-1.87 3.65 C-1.87 5.44, -1.87 7.24, -1.87 9.35 M-1.87 9.35 C1.29 9.35, 4.45 9.35, 7.48 9.35 M-1.87 9.35 C0.63 9.35, 3.14 9.35, 7.48 9.35 M7.48 9.35 C7.48 6.89, 7.48 4.44, 7.48 0 M7.48 9.35 C7.48 6.96, 7.48 4.58, 7.48 0 M7.48 0 C5.27 0, 3.06 0, 0 0 M7.48 0 C5.17 0, 2.87 0, 0 0 M0 0 C0 0, 0 0, 0 0 M0 0 C0 0, 0 0, 0 0 M0 0 C0 0, 0 0, 0 0 M0 0 C0 0, 0 0, 0 0" stroke="#00000000" stroke-width="1" fill="none"></path></g></g><g stroke-linecap="round" transform="translate(490 410) rotate(0 113.46153846153845 50)"><path d="M25 0 L201.92 0 L212.86 1.56 L217.16 3.52 L220.67 6.25 L223.41 9.77 L226.53 19.14 L226.92 75 L225.36 85.94 L223.41 90.23 L220.67 93.75 L217.16 96.48 L212.86 98.44 L201.92 100 L25 100 L14.06 98.44 L9.77 96.48 L6.25 93.75 L3.52 90.23 L0.39 80.86 L0.39 19.14 L3.52 9.77 L6.25 6.25 L9.77 3.52 L14.06 1.56 L25 0" stroke="none" stroke-width="0" fill="#FFF"></path><path d="M25 0 M25 0 C67.14 0, 109.29 0, 201.92 0 M25 0 C93.86 0, 162.72 0, 201.92 0 M201.92 0 C218.59 0, 226.92 8.33, 226.92 25 M201.92 0 C218.59 0, 226.92 8.33, 226.92 25 M226.92 25 C226.92 41.09, 226.92 57.19, 226.92 75 M226.92 25 C226.92 43.53, 226.92 62.07, 226.92 75 M226.92 75 C226.92 91.67, 218.59 100, 201.92 100 M226.92 75 C226.92 91.67, 218.59 100, 201.92 100 M201.92 100 C161.76 100, 121.6 100, 25 100 M201.92 100 C143.77 100, 85.61 100, 25 100 M25 100 C8.33 100, 0 91.67, 0 75 M25 100 C8.33 100, 0 91.67, 0 75 M0 75 C0 62.64, 0 50.28, 0 25 M0 75 C0 56.05, 0 37.1, 0 25 M0 25 C0 8.33, 8.33 0, 25 0 M0 25 C0 8.33, 8.33 0, 25 0" stroke="#4285f4" stroke-width="2" fill="none"></path></g><g transform="translate(566.9230769230769 449.7435897435889) rotate(0 13.461538461538453 17.9487179487179)"><text x="0" y="12.948717948717942" font-family="Helvetica, Segoe UI Emoji" font-size="15.384615384615385px" fill="#000000" text-anchor="start" style="white-space: pre;" direction="ltr">App</text><text x="0" y="30.897435897435884" font-family="Helvetica, Segoe UI Emoji" font-size="15.384615384615385px" fill="#000000" text-anchor="start" style="white-space: pre;" direction="ltr"></text></g><g transform="translate(566.9230769230769 470.2564102564106) rotate(0 25 8.974358974359006)"><text x="0" y="12.948717948717942" font-family="Helvetica, Segoe UI Emoji" font-size="15.384615384615383px" fill="#B5B9BF" text-anchor="start" style="white-space: pre;" direction="ltr">Django</text></g><g stroke-linecap="round"><g transform="translate(531.9736837729432 439.31174085690463) rotate(0 -0.011808444292114473 21.166496628370055)" fill-rule="evenodd"><path d="M0 0 L-18.65 10.59 L-18.65 31.73 L-0.04 42.33 L18.62 31.66 L18.62 10.39 L0 0" stroke="none" stroke-width="0" fill="#aecbfa" fill-rule="evenodd"></path><path d="M0 0 C-4.04 2.3, -8.09 4.59, -18.65 10.59 M0 0 C-5.48 3.11, -10.97 6.23, -18.65 10.59 M-18.65 10.59 C-18.65 16.78, -18.65 22.97, -18.65 31.73 M-18.65 10.59 C-18.65 17.4, -18.65 24.2, -18.65 31.73 M-18.65 31.73 C-14.54 34.07, -10.43 36.41, -0.04 42.33 M-18.65 31.73 C-11.4 35.86, -4.16 39.98, -0.04 42.33 M-0.04 42.33 C4.66 39.65, 9.35 36.96, 18.62 31.66 M-0.04 42.33 C6.88 38.38, 13.8 34.42, 18.62 31.66 M18.62 31.66 C18.62 24.36, 18.62 17.06, 18.62 10.39 M18.62 31.66 C18.62 24.67, 18.62 17.68, 18.62 10.39 M18.62 10.39 C12.17 6.79, 5.71 3.19, 0 0 M18.62 10.39 C11.56 6.45, 4.51 2.52, 0 0 M0 0 C0 0, 0 0, 0 0 M0 0 C0 0, 0 0, 0 0" stroke="#00000000" stroke-width="1" fill="none"></path></g></g><g stroke-linecap="round"><g transform="translate(531.9854922172349 443.9170040228437) rotate(0 -0.023618111243649764 16.55533130352319)" fill-rule="evenodd"><path d="M0 0 L-14.64 8.32 L-14.64 24.79 L-0.06 33.11 L14.6 24.73 L14.6 8.15 L0 0" stroke="none" stroke-width="0" fill="#fff" fill-rule="evenodd"></path><path d="M0 0 C-3.49 1.98, -6.98 3.97, -14.64 8.32 M0 0 C-3.57 2.03, -7.14 4.06, -14.64 8.32 M-14.64 8.32 C-14.64 12.83, -14.64 17.34, -14.64 24.79 M-14.64 8.32 C-14.64 12.17, -14.64 16.02, -14.64 24.79 M-14.64 24.79 C-9.11 27.94, -3.58 31.1, -0.06 33.11 M-14.64 24.79 C-9.54 27.7, -4.43 30.62, -0.06 33.11 M-0.06 33.11 C5.63 29.86, 11.31 26.61, 14.6 24.73 M-0.06 33.11 C3.57 31.03, 7.21 28.95, 14.6 24.73 M14.6 24.73 C14.6 20.83, 14.6 16.93, 14.6 8.15 M14.6 24.73 C14.6 19.61, 14.6 14.49, 14.6 8.15 M14.6 8.15 C9.84 5.49, 5.08 2.84, 0 0 M14.6 8.15 C11.31 6.32, 8.03 4.48, 0 0 M0 0 C0 0, 0 0, 0 0 M0 0 C0 0, 0 0, 0 0" stroke="#00000000" stroke-width="1" fill="none"></path></g></g><g stroke-linecap="round"><g transform="translate(532.894735091772 460.9800935402898) rotate(0 4.138832825880797 2.4679495738103014)" fill-rule="evenodd"><path d="M0 0 L0 9.84 L8.28 4.98 L8.28 -4.9 L0 0" stroke="none" stroke-width="0" fill="#4285f4" fill-rule="evenodd"></path><path d="M0 0 C0 2.28, 0 4.56, 0 9.84 M0 0 C0 2.98, 0 5.96, 0 9.84 M0 9.84 C2.12 8.59, 4.24 7.35, 8.28 4.98 M0 9.84 C2.4 8.43, 4.81 7.02, 8.28 4.98 M8.28 4.98 C8.28 1.95, 8.28 -1.09, 8.28 -4.9 M8.28 4.98 C8.28 2.13, 8.28 -0.72, 8.28 -4.9 M8.28 -4.9 C5.62 -3.33, 2.97 -1.76, 0 0 M8.28 -4.9 C5.2 -3.08, 2.12 -1.25, 0 0 M0 0 C0 0, 0 0, 0 0 M0 0 C0 0, 0 0, 0 0" stroke="#00000000" stroke-width="1" fill="none"></path></g></g><g stroke-linecap="round"><g transform="translate(523.4952770135342 454.4854931953621) rotate(0 8.466599537776062 0.017712055108518143)" fill-rule="evenodd"><path d="M0 0 L8.4 4.87 L16.93 -0.01 L8.4 -4.83 L0 0" stroke="none" stroke-width="0" fill="#aecbfa" fill-rule="evenodd"></path><path d="M0 0 C2.09 1.21, 4.18 2.42, 8.4 4.87 M0 0 C2.62 1.52, 5.23 3.03, 8.4 4.87 M8.4 4.87 C11.4 3.15, 14.4 1.43, 16.93 -0.01 M8.4 4.87 C11.05 3.35, 13.71 1.83, 16.93 -0.01 M16.93 -0.01 C15.17 -1.01, 13.4 -2.01, 8.4 -4.83 M16.93 -0.01 C13.95 -1.7, 10.96 -3.38, 8.4 -4.83 M8.4 -4.83 C5.09 -2.93, 1.78 -1.02, 0 0 M8.4 -4.83 C6.51 -3.75, 4.63 -2.66, 0 0 M0 0 C0 0, 0 0, 0 0 M0 0 C0 0, 0 0, 0 0" stroke="#00000000" stroke-width="1" fill="none"></path></g></g><g stroke-linecap="round"><g transform="translate(522.7041161366 456.12685472537305) rotate(0 4.079790604420225 7.344804665981201)" fill-rule="evenodd"><path d="M0 0 L8.22 4.91 L8.22 14.69 L-0.06 9.68 L0 0" stroke="none" stroke-width="0" fill="#669df6" fill-rule="evenodd"></path><path d="M0 0 C2.2 1.32, 4.41 2.63, 8.22 4.91 M0 0 C2 1.19, 3.99 2.39, 8.22 4.91 M8.22 4.91 C8.22 8.63, 8.22 12.36, 8.22 14.69 M8.22 4.91 C8.22 8.75, 8.22 12.59, 8.22 14.69 M8.22 14.69 C6.25 13.5, 4.27 12.3, -0.06 9.68 M8.22 14.69 C6.26 13.5, 4.29 12.31, -0.06 9.68 M-0.06 9.68 C-0.04 6.57, -0.02 3.45, 0 0 M-0.06 9.68 C-0.04 7.34, -0.03 5, 0 0 M0 0 C0 0, 0 0, 0 0 M0 0 C0 0, 0 0, 0 0" stroke="#00000000" stroke-width="1" fill="none"></path></g></g><g stroke-linecap="round"><g transform="translate(532.8947350917723 450.8367071396274) rotate(0 -0.9505724295591449 -3.459851558391847)" fill-rule="evenodd"><path d="M0 0 L0 -6.41 L-0.91 -6.92 L-1.9 -6.34 L-1.9 0 L0 0" stroke="none" stroke-width="0" fill="#aecbfa" fill-rule="evenodd"></path><path d="M0 0 C0 -1.34, 0 -2.68, 0 -6.41 M0 0 C0 -2.55, 0 -5.11, 0 -6.41 M0 -6.41 C-0.21 -6.53, -0.41 -6.64, -0.91 -6.92 M0 -6.41 C-0.31 -6.58, -0.61 -6.75, -0.91 -6.92 M-0.91 -6.92 C-1.14 -6.78, -1.37 -6.65, -1.9 -6.34 M-0.91 -6.92 C-1.25 -6.72, -1.59 -6.53, -1.9 -6.34 M-1.9 -6.34 C-1.9 -4.78, -1.9 -3.21, -1.9 0 M-1.9 -6.34 C-1.9 -5.02, -1.9 -3.71, -1.9 0 M-1.9 0 C-1.37 0, -0.84 0, 0 0 M-1.9 0 C-1.39 0, -0.88 0, 0 0 M0 0 C0 0, 0 0, 0 0 M0 0 C0 0, 0 0, 0 0" stroke="#00000000" stroke-width="1" fill="none"></path></g></g><g stroke-linecap="round"><g transform="translate(546.580631549542 467.8525641025651) rotate(0 -3.802293386214842 -1.2457835368620636)" fill-rule="evenodd"><path d="M0 0 L-6.72 -3.91 L-7.6 -2.37 L-1.09 1.42 L0 0.79 L0 0" stroke="none" stroke-width="0" fill="#4285f4" fill-rule="evenodd"></path><path d="M0 0 C-1.64 -0.96, -3.29 -1.91, -6.72 -3.91 M0 0 C-2.28 -1.33, -4.56 -2.65, -6.72 -3.91 M-6.72 -3.91 C-6.97 -3.48, -7.22 -3.05, -7.6 -2.37 M-6.72 -3.91 C-7.01 -3.4, -7.31 -2.89, -7.6 -2.37 M-7.6 -2.37 C-5.63 -1.23, -3.66 -0.08, -1.09 1.42 M-7.6 -2.37 C-5.09 -0.91, -2.57 0.56, -1.09 1.42 M-1.09 1.42 C-0.76 1.23, -0.44 1.05, 0 0.79 M-1.09 1.42 C-0.81 1.26, -0.54 1.1, 0 0.79 M0 0.79 C0 0.54, 0 0.29, 0 0 M0 0.79 C0 0.51, 0 0.22, 0 0 M0 0 C0 0, 0 0, 0 0 M0 0 C0 0, 0 0, 0 0" stroke="#00000000" stroke-width="1" fill="none"></path></g></g><g stroke-linecap="round"><g transform="translate(523.8141025641023 463.97941882793657) rotate(0 -2.780870902232607 2.6627858479818087)" fill-rule="evenodd"><path d="M0 0 L-6.47 3.9 L-6.47 4.72 L-5.42 5.33 L0.91 1.52 L0 0" stroke="none" stroke-width="0" fill="#669df6" fill-rule="evenodd"></path><path d="M0 0 C-1.42 0.85, -2.84 1.71, -6.47 3.9 M0 0 C-2.06 1.24, -4.13 2.49, -6.47 3.9 M-6.47 3.9 C-6.47 4.06, -6.47 4.23, -6.47 4.72 M-6.47 3.9 C-6.47 4.17, -6.47 4.44, -6.47 4.72 M-6.47 4.72 C-6.23 4.86, -5.98 5, -5.42 5.33 M-6.47 4.72 C-6.13 4.92, -5.8 5.11, -5.42 5.33 M-5.42 5.33 C-3.13 3.95, -0.84 2.58, 0.91 1.52 M-5.42 5.33 C-3.81 4.36, -2.21 3.39, 0.91 1.52 M0.91 1.52 C0.61 1.03, 0.32 0.53, 0 0 M0.91 1.52 C0.57 0.96, 0.23 0.39, 0 0 M0 0 C0 0, 0 0, 0 0 M0 0 C0 0, 0 0, 0 0" stroke="#00000000" stroke-width="1" fill="none"></path></g></g><g stroke-linecap="round"><g stroke-opacity="0.8" fill-opacity="0.8" transform="translate(710.814577902481 429.79119804468155) rotate(0 99.54333230119767 1.176518604377975)"><path d="M-0.81 1.11 C32.22 1.37, 164.27 2.21, 197.53 2.14 M0.96 0.65 C34.45 0.48, 167.02 0.1, 199.9 0.23" stroke="#000000" stroke-width="1" fill="none"></path></g><g stroke-opacity="0.8" fill-opacity="0.8" transform="translate(710.814577902481 429.79119804468155) rotate(0 99.54333230119767 1.176518604377975)"><path d="M173.56 9.42 C179.19 9.1, 183.62 6.84, 199.57 -0.12 M171.17 10.97 C179.84 7.06, 186.54 5.81, 198.96 -0.41" stroke="#000000" stroke-width="1" fill="none"></path></g><g stroke-opacity="0.8" fill-opacity="0.8" transform="translate(710.814577902481 429.79119804468155) rotate(0 99.54333230119767 1.176518604377975)"><path d="M173.56 -11.1 C179.29 -6.43, 183.72 -3.69, 199.57 -0.12 M171.17 -9.55 C180.04 -8, 186.73 -3.78, 198.96 -0.41" stroke="#000000" stroke-width="1" fill="none"></path></g></g><g stroke-linecap="round"><g stroke-opacity="0.8" fill-opacity="0.8" transform="translate(910 470) rotate(0 -100.16907627273349 0.06418931968505603)"><path d="M-0.99 1.13 C-34.57 1.07, -168.05 -0.86, -201.02 -1.01 M0.69 0.68 C-32.57 0.79, -165.58 -0.17, -198.85 0" stroke="#000000" stroke-width="1" fill="none"></path></g><g stroke-opacity="0.8" fill-opacity="0.8" transform="translate(910 470) rotate(0 -100.16907627273349 0.06418931968505603)"><path d="M-168.75 -11.91 C-181.84 -5.03, -189.21 -5.36, -197.16 -1.81 M-169.98 -10.53 C-180.07 -6.53, -189.88 -2.93, -199.33 0.19" stroke="#000000" stroke-width="1" fill="none"></path></g><g stroke-opacity="0.8" fill-opacity="0.8" transform="translate(910 470) rotate(0 -100.16907627273349 0.06418931968505603)"><path d="M-168.78 8.61 C-181.76 8.6, -189.12 1.38, -197.16 -1.81 M-170.02 9.99 C-180.13 6.77, -189.93 3.13, -199.33 0.19" stroke="#000000" stroke-width="1" fill="none"></path></g></g><g stroke-linecap="round"><g stroke-opacity="0.8" fill-opacity="0.8" transform="translate(610 330) rotate(0 -1.1527191887832942 39.82962602669784)"><path d="M0.38 -0.63 C-0.01 12.87, -2.19 66.96, -2.68 80.29 M-0.88 1.65 C-0.86 14.88, -0.56 65.42, -0.42 78.58" stroke="#000000" stroke-width="1" fill="none"></path></g><g stroke-opacity="0.8" fill-opacity="0.8" transform="translate(610 330) rotate(0 -1.1527191887832942 39.82962602669784)"><path d="M-11.96 49.04 C-6.94 56.83, -5.65 65.23, -2.24 76.7 M-11.83 50.63 C-7.8 60.92, -4.29 71.56, -0.06 79.37" stroke="#000000" stroke-width="1" fill="none"></path></g><g stroke-opacity="0.8" fill-opacity="0.8" transform="translate(610 330) rotate(0 -1.1527191887832942 39.82962602669784)"><path d="M8.56 48.88 C8.01 56.78, 3.74 65.23, -2.24 76.7 M8.69 50.47 C5.22 60.78, 1.24 71.48, -0.06 79.37" stroke="#000000" stroke-width="1" fill="none"></path></g></g><g stroke-linecap="round"><g stroke-opacity="0.8" fill-opacity="0.8" transform="translate(610 150) rotate(0 -1.0649492274260979 39.789674486460854)"><path d="M0.8 1.12 C0.14 14.16, -2.48 66.05, -2.93 78.91 M-0.23 0.67 C-0.63 13.28, -0.38 63.91, -0.8 77.06" stroke="#000000" stroke-width="1" fill="none"></path></g><g stroke-opacity="0.8" fill-opacity="0.8" transform="translate(610 150) rotate(0 -1.0649492274260979 39.789674486460854)"><path d="M-8.86 46.91 C-5.89 59.44, -3.09 72.51, 0.53 75.27 M-10.91 49.63 C-7.6 56.2, -4.46 64.72, -1.67 77.08" stroke="#000000" stroke-width="1" fill="none"></path></g><g stroke-opacity="0.8" fill-opacity="0.8" transform="translate(610 150) rotate(0 -1.0649492274260979 39.789674486460854)"><path d="M11.66 47.15 C6.71 59.73, 1.61 72.7, 0.53 75.27 M9.61 49.87 C7.15 56.54, 4.52 64.99, -1.67 77.08" stroke="#000000" stroke-width="1" fill="none"></path></g></g></svg>